<?xml version="1.0" encoding="UTF-8"?>
<svg version="1.1" xmlns="http://www.w3.org/2000/svg" width="512" height="512">
<path d="M0 0 C0.66406109 -0.00205263 1.32812218 -0.00410527 2.01230633 -0.0062201 C4.24727839 -0.01189433 6.4821889 -0.01043233 8.7171669 -0.00901413 C10.33184005 -0.01159752 11.94651255 -0.01461061 13.56118417 -0.01801753 C18.006122 -0.0260938 22.45104369 -0.02787745 26.89598799 -0.028615 C31.68684924 -0.03046445 36.4777021 -0.03801123 41.2685585 -0.04475021 C51.74786228 -0.05833837 62.22716223 -0.06435897 72.70647335 -0.06876087 C79.24814752 -0.0715224 85.78982021 -0.07575958 92.33149338 -0.08026505 C110.43883929 -0.09245819 128.54618401 -0.10275751 146.65353394 -0.10614014 C148.39225988 -0.10646949 148.39225988 -0.10646949 150.1661116 -0.10680549 C151.32805514 -0.10702377 152.48999868 -0.10724204 153.68715262 -0.10746694 C156.04174153 -0.1079104 158.39633044 -0.10835697 160.75091934 -0.10880661 C161.91887984 -0.10902804 163.08684034 -0.10924947 164.29019359 -0.10947761 C183.21854201 -0.11342626 202.14685195 -0.13088213 221.07518551 -0.15416613 C240.5025255 -0.17787134 259.92984617 -0.1903416 279.35720086 -0.19150805 C290.26741013 -0.19242527 301.17756927 -0.19818921 312.08776474 -0.21632767 C321.37744354 -0.23171741 330.66705671 -0.23685576 339.95674583 -0.22858956 C344.69693791 -0.22467912 349.43699775 -0.22563193 354.17717361 -0.23964691 C358.51736861 -0.25236201 362.85733168 -0.25120937 367.19752625 -0.2390562 C368.76685444 -0.23709506 370.33619892 -0.24019688 371.9055042 -0.24890056 C380.99035285 -0.29609305 388.28630001 -0.12792872 396.1581459 4.88142776 C401.59983045 10.32311231 403.53005402 16.15897284 403.53957367 23.72377014 C403.54341481 24.86935449 403.54725596 26.01493885 403.5512135 27.19523787 C403.55034702 28.45436059 403.54948054 29.71348331 403.5485878 31.01076126 C403.55117173 32.36144732 403.55418497 33.71213262 403.5575912 35.06281686 C403.56566113 38.77805461 403.56745077 42.49327303 403.56818867 46.20851851 C403.57003923 50.21409721 403.57758658 54.21966589 403.58432388 58.2252388 C403.59790762 66.9855889 403.60393197 75.74593442 403.60833454 84.5062933 C403.61109686 89.97590545 403.61533419 95.44551584 403.61983871 100.9151268 C403.63203137 116.05779153 403.64233073 131.20045485 403.64571381 146.34312439 C403.64593337 147.3123479 403.64615294 148.28157141 403.64637916 149.28016533 C403.64659744 150.2517122 403.64681571 151.22325906 403.64704061 152.22424674 C403.64748407 154.19298156 403.64793064 156.16171638 403.64838028 158.1304512 C403.64860171 159.10701236 403.64882314 160.08357351 403.64905128 161.08972743 C403.65299944 176.91414665 403.67045405 192.73851982 403.6937398 208.56292126 C403.71745192 224.80814663 403.72991559 241.05334889 403.73108172 257.29859185 C403.73199856 266.42028196 403.73775293 275.54191208 403.75590134 284.66358566 C403.77130043 292.43079952 403.77642391 300.19793484 403.76816323 307.96516106 C403.76425607 311.92766053 403.76518952 315.89000183 403.77922058 319.85248184 C403.79195548 323.4821295 403.79076575 327.11150006 403.77862987 330.74114731 C403.77574686 332.67165727 403.78761179 334.602172 403.80005193 336.53264403 C403.7552615 344.38994926 403.33647572 350.64908961 398.0956459 356.88142776 C391.48479715 362.41609184 387.33026926 364.25389931 378.81629181 364.26285553 C378.15223072 364.26490816 377.48816963 364.2669608 376.80398548 364.26907563 C374.56901342 364.27474986 372.33410291 364.27328786 370.09912491 364.27186966 C368.48445176 364.27445305 366.86977926 364.27746614 365.25510764 364.28087306 C360.81016981 364.28894933 356.36524812 364.29073298 351.92030382 364.29147053 C347.12944257 364.29331998 342.33858971 364.30086676 337.54773331 364.30760574 C327.06842953 364.3211939 316.58912958 364.3272145 306.10981846 364.3316164 C299.56814429 364.33437793 293.0264716 364.33861511 286.48479843 364.34312057 C268.37745252 364.35531372 250.2701078 364.36561304 232.16275787 364.36899567 C230.42403193 364.36932502 230.42403193 364.36932502 228.65018021 364.36966102 C227.48823667 364.3698793 226.32629313 364.37009757 225.12913918 364.37032247 C222.77455028 364.37076593 220.41996137 364.3712125 218.06537247 364.37166214 C216.89741197 364.37188357 215.72945147 364.372105 214.52609822 364.37233314 C195.5977498 364.37628179 176.66943986 364.39373766 157.7411063 364.41702166 C138.31376631 364.44072687 118.88644564 364.45319713 99.45909095 364.45436358 C88.54888167 364.4552808 77.63872254 364.46104474 66.72852707 364.4791832 C57.43884827 364.49457294 48.1492351 364.49971128 38.85954598 364.49144509 C34.1193539 364.48753465 29.37929405 364.48848746 24.63911819 364.50250244 C20.2989232 364.51521754 15.95896013 364.5140649 11.61876556 364.50191173 C10.04943737 364.49995059 8.48009289 364.50305241 6.91078761 364.51175609 C-2.17406104 364.55894858 -9.4700082 364.39078425 -17.3418541 359.38142776 C-22.78353864 353.93974322 -24.71376221 348.10388269 -24.72328186 340.53908539 C-24.72712301 339.39350104 -24.73096415 338.24791668 -24.73492169 337.06761765 C-24.73405521 335.80849494 -24.73318873 334.54937222 -24.73229599 333.25209427 C-24.73487992 331.90140821 -24.73789316 330.55072291 -24.74129939 329.20003867 C-24.74936932 325.48480092 -24.75115896 321.7695825 -24.75189686 318.05433702 C-24.75374742 314.04875832 -24.76129477 310.04318964 -24.76803207 306.03761673 C-24.78161581 297.27726663 -24.78764016 288.51692111 -24.79204273 279.75656223 C-24.79480505 274.28695008 -24.79904238 268.81733969 -24.80354691 263.34772873 C-24.81573956 248.20506399 -24.82603892 233.06240068 -24.829422 217.91973114 C-24.82964156 216.95050763 -24.82986113 215.98128412 -24.83008735 214.9826902 C-24.83030563 214.01114333 -24.8305239 213.03959647 -24.8307488 212.03860879 C-24.83119226 210.06987397 -24.83163883 208.10113915 -24.83208847 206.13240433 C-24.8323099 205.15584317 -24.83253133 204.17928202 -24.83275947 203.1731281 C-24.83670763 187.34870888 -24.85416224 171.52433571 -24.87744799 155.69993427 C-24.90116012 139.4547089 -24.91362378 123.20950664 -24.91478992 106.96426368 C-24.91570675 97.84257357 -24.92146112 88.72094345 -24.93960953 79.59926987 C-24.95500862 71.83205601 -24.96013211 64.06492069 -24.95187142 56.29769447 C-24.94796426 52.335195 -24.94889772 48.3728537 -24.96292877 44.41037369 C-24.97566367 40.78072603 -24.97447394 37.15135547 -24.96233806 33.52170822 C-24.95945505 31.59119826 -24.97131998 29.66068353 -24.98376012 27.7302115 C-24.93396402 18.99479181 -24.06751694 11.60709061 -17.5918541 5.13142776 C-11.71599795 1.06775155 -7.0429566 0.00740879 0 0 Z M54.4081459 89.13142776 C53.8100209 89.52330276 53.2118959 89.91517776 52.5956459 90.31892776 C50.97758356 92.78860188 50.74407512 95.05146601 50.8925209 97.96736526 C52.82296033 106.06936105 62.26724997 111.35471039 68.52923965 116.14314651 C72.55638946 119.22465809 76.48470089 122.41952519 80.4081459 125.63142776 C85.36982998 129.68201271 90.35970395 133.68949363 95.4081459 137.63142776 C101.14455337 142.11054044 106.79796631 146.68487454 112.43622208 151.2867012 C116.8285371 154.86526975 121.25660855 158.39281957 125.7206459 161.88142776 C132.92162843 167.50947865 140.04135444 173.2330674 146.9706459 179.19392776 C149.15013204 181.33884247 149.15013204 181.33884247 151.4081459 181.13142776 C151.4081459 181.79142776 151.4081459 182.45142776 151.4081459 183.13142776 C150.84611465 183.38279495 150.2840834 183.63416214 149.7050209 183.89314651 C147.05881271 185.31975876 144.96469502 187.01344644 142.6581459 188.94392776 C141.69005997 189.7470137 140.72197403 190.55009964 139.72455215 191.37752151 C139.1949086 191.81821976 138.66526505 192.258918 138.11957169 192.71297073 C134.96118318 195.33069359 131.77849778 197.91854784 128.5956459 200.50642776 C127.91212051 201.06241653 127.22859512 201.6184053 126.52435684 202.19124222 C121.62244103 206.16899797 116.67336653 210.0817123 111.69794083 213.96687698 C107.22417331 217.46874617 102.80970019 221.03935473 98.4081459 224.63142776 C93.44576158 228.68118968 88.45637135 232.68916888 83.4081459 236.63142776 C65.38080432 248.70307983 65.38080432 248.70307983 51.4081459 264.13142776 C50.99609756 268.76697165 51.53360444 271.43558874 54.4081459 275.13142776 C56.78738979 276.91586068 58.64544923 277.17330482 61.5956459 277.69392776 C67.23393035 276.86204973 70.15265871 273.7599905 74.4081459 270.13142776 C76.00943667 268.8724129 77.61113601 267.61387547 79.22040176 266.36507034 C85.70745265 261.32943941 92.08335172 256.16070858 98.44549942 250.96883011 C103.29267882 247.01979594 108.19131736 243.143198 113.1190834 239.29549026 C117.59251299 235.7936653 122.00681792 232.22331612 126.4081459 228.63142776 C131.37052408 224.58167087 136.35972691 220.57343283 141.4081459 216.63142776 C147.23038428 212.08436982 152.97554528 207.4479576 158.69989395 202.77840042 C163.26711995 199.05296365 167.86140302 195.36620959 172.49017715 191.71736526 C176.45578462 188.48275406 176.45578462 188.48275406 178.2831459 183.75642776 C178.42676179 179.59156718 177.74287283 178.47421352 175.4081459 175.13142776 C170.20380563 169.68582668 163.99133725 165.16979914 158.0553627 160.55086136 C153.45617853 156.97093604 148.92179063 153.31846944 144.4081459 149.63142776 C139.44597943 145.58141987 134.45660146 141.57337252 129.4081459 137.63142776 C124.35968304 133.68947731 119.37057696 129.68111854 114.4081459 125.63142776 C108.86057583 121.10520105 103.27329553 116.63743899 97.63129044 112.2295723 C93.96544386 109.36331963 90.32569293 106.4671726 86.70111465 103.54890823 C84.20611947 101.54236806 81.70317184 99.54599607 79.19672012 97.55379105 C78.02200847 96.61960184 76.84909524 95.68314582 75.67816544 94.74422073 C74.07650602 93.46523139 72.46337137 92.20250073 70.8456459 90.94392776 C69.93685684 90.22849808 69.02806778 89.51306839 68.09173965 88.77595901 C62.86938252 85.57564991 59.28094393 85.44390494 54.4081459 89.13142776 Z M180.5956459 261.88142776 C178.86246482 265.16534983 178.95881957 267.47262761 179.4081459 271.13142776 C181.19498709 274.22403751 182.55295137 275.72887904 185.78657913 277.25098038 C191.10160234 278.54312784 196.27714573 278.41768459 201.72821426 278.40608597 C202.96630341 278.4111969 204.20439255 278.41630783 205.47999954 278.42157364 C208.86438485 278.43306992 212.24852478 278.43554682 215.6329124 278.43301034 C218.4633516 278.43193799 221.2937684 278.4368307 224.12420279 278.44161576 C230.80407274 278.45269708 237.48388645 278.45315602 244.16376114 278.44710159 C251.04389379 278.44106135 257.92382196 278.45337713 264.80391973 278.47467166 C270.72173643 278.4923111 276.63948818 278.49828536 282.55733019 278.49503392 C286.08705972 278.49322475 289.61664335 278.49582054 293.14634895 278.50974846 C297.0838747 278.52470539 301.02114171 278.51533616 304.95868301 278.50374222 C306.70213501 278.51520782 306.70213501 278.51520782 308.48080826 278.52690506 C315.38216968 278.48199787 321.00328654 278.20678461 326.3456459 273.38142776 C327.92610717 270.03456862 327.91299854 267.79160935 327.4081459 264.13142776 C325.38446695 260.65783324 323.29797767 258.42803835 319.4081459 257.13142776 C317.63070729 257.03476384 315.84985419 256.9964778 314.06979752 256.99098587 C312.40844772 256.98242065 312.40844772 256.98242065 310.71353531 256.9736824 C308.89005066 256.97200562 308.89005066 256.97200562 307.02972794 256.97029495 C305.74985001 256.96533005 304.46997208 256.96036514 303.15130997 256.95524979 C299.63886774 256.94213411 296.12644461 256.93568257 292.61398172 256.93123913 C290.41937916 256.92830733 288.22478182 256.92420234 286.03018188 256.91973495 C279.1632315 256.90606282 272.29629304 256.89639452 265.42932999 256.89253306 C257.503264 256.88805148 249.57737039 256.87049786 241.65135682 256.84153247 C235.52387677 256.81991717 229.39644523 256.80982888 223.26892745 256.80849195 C219.60953829 256.80744389 215.95031123 256.80153609 212.29096222 256.78367233 C208.20898598 256.76413275 204.12737074 256.76847998 200.04535294 256.77498245 C198.83374496 256.76576767 197.62213699 256.75655289 196.37381363 256.74705887 C195.26060745 256.75262802 194.14740128 256.75819717 193.00046158 256.76393509 C192.03555361 256.76246853 191.07064564 256.76100197 190.07649803 256.75949097 C186.09024203 257.31512801 183.45488115 259.12078684 180.5956459 261.88142776 Z " fill="#000000" transform="translate(66.59185409545898,73.86857223510742)"/>
</svg>
