<?xml version="1.0" encoding="UTF-8"?>
<svg version="1.1" xmlns="http://www.w3.org/2000/svg" width="512" height="512">
<path d="M0 0 C0.6930574 -0.00671722 1.38611481 -0.01343445 2.10017395 -0.02035522 C4.39262047 -0.03936075 6.6847745 -0.04326095 8.97729492 -0.04541016 C10.57289246 -0.05183739 12.16848881 -0.0585657 13.76408386 -0.06558228 C17.110654 -0.07756217 20.45712087 -0.08126248 23.80371094 -0.08007812 C28.08441796 -0.07987514 32.36445956 -0.10715257 36.64500904 -0.14162254 C39.94194048 -0.16390393 43.23871227 -0.16791526 46.53571129 -0.16685867 C48.1133217 -0.16921372 49.69093657 -0.17803191 51.26847267 -0.19352341 C53.48023078 -0.21320533 55.69056074 -0.20733783 57.90234375 -0.1953125 C59.78739372 -0.19958755 59.78739372 -0.19958755 61.71052551 -0.20394897 C65.86044758 0.3934876 67.93949633 1.61539678 71.14526367 4.29052734 C73.68315135 7.84727661 74.51982088 10.27138351 74.51440716 14.62221241 C74.5203803 15.68415312 74.52635345 16.74609382 74.5325076 17.84021455 C74.52376907 19.00071673 74.51503055 20.16121891 74.50602722 21.35688782 C74.5085905 22.59439275 74.51115377 23.83189769 74.51379472 25.10690278 C74.51788238 28.53907297 74.50850489 31.97073018 74.49346054 35.40283835 C74.48050708 39.10489808 74.48488914 42.80694193 74.48716736 46.50901794 C74.48874053 52.9221656 74.47932675 59.3352217 74.46245384 65.74834633 C74.43807436 75.02063671 74.43025965 84.29288282 74.42648987 93.56520178 C74.41992373 108.60884126 74.39995817 123.65243194 74.37158203 138.69604492 C74.34404566 153.30964921 74.32281001 167.92324024 74.31005859 182.53686523 C74.30927042 183.43762428 74.30848225 184.33838333 74.3076702 185.2664381 C74.30375509 189.78527437 74.29996397 194.30411072 74.29623449 198.82294714 C74.26513353 236.312175 74.21229332 273.80134737 74.14526367 311.29052734 C74.78028809 311.26958008 75.4153125 311.24863281 76.06958008 311.22705078 C78.96964444 311.14348154 81.86945483 311.09173961 84.77026367 311.04052734 C85.76928711 311.00701172 86.76831055 310.97349609 87.79760742 310.93896484 C93.93867721 310.85762617 97.48865062 311.15966856 102.14526367 315.29052734 C106.20156765 320.51312592 105.91923911 325.94392877 105.14526367 332.29052734 C102.97021465 336.88229751 100.69003694 339.12263506 96.14526367 341.29052734 C93.29885718 341.57444169 90.67532292 341.69547919 87.83180332 341.67084408 C86.99377508 341.675504 86.15574684 341.68016392 85.2923238 341.68496504 C82.47146324 341.696959 79.65108042 341.68750266 76.83021545 341.6782074 C74.79252196 341.68237838 72.75483079 341.6878546 70.71714395 341.69452721 C65.1076009 341.70903134 59.49820415 341.7047216 53.88865292 341.6973604 C47.84288394 341.6926433 41.79714728 341.70512561 35.75138855 341.71537781 C24.58870648 341.73160364 13.42606992 341.73400519 2.26338229 341.72907282 C-8.0488854 341.72451838 -18.36113566 341.7251114 -28.67340279 341.73091316 C-30.05584588 341.73167002 -31.43828898 341.732426 -32.82073208 341.73318111 C-34.90386327 341.73432628 -36.98699445 341.73547616 -39.07012563 341.73664035 C-58.44119369 341.74734786 -77.81225593 341.75206801 -97.18332577 341.74417019 C-97.91377735 341.74387302 -98.64422892 341.74357584 -99.3968154 341.74326966 C-105.32887187 341.74082064 -111.26092828 341.7382091 -117.19298468 341.73558553 C-140.33441318 341.7254822 -163.47576912 341.7338391 -186.6171875 341.75708008 C-212.60856077 341.78314095 -238.59989036 341.79600378 -264.59127718 341.78889233 C-267.36160282 341.78817625 -270.13192846 341.78750186 -272.9022541 341.78685188 C-273.5843934 341.78668207 -274.2665327 341.78651226 -274.96934289 341.78633731 C-285.27504392 341.78403249 -295.58070446 341.79202003 -305.88639641 341.80514336 C-317.60401291 341.8200379 -329.32155065 341.82054487 -341.03917091 341.80307245 C-347.02062466 341.79453243 -353.00189673 341.79248598 -358.98334122 341.807724 C-364.45527574 341.82149176 -369.9268716 341.81691032 -375.39878614 341.79748476 C-377.38190561 341.79370004 -379.3650517 341.79671722 -381.34814762 341.80709641 C-384.03765556 341.82017562 -386.72597883 341.80876439 -389.41543484 341.79109859 C-390.19079017 341.80074911 -390.96614549 341.81039962 -391.76499644 341.82034257 C-396.93769559 341.75026946 -399.86761512 340.55259918 -403.85473633 337.29052734 C-407.91104031 332.06792877 -407.62871176 326.63712592 -406.85473633 320.29052734 C-404.68779348 315.71587022 -402.45398322 313.33202979 -397.85473633 311.29052734 C-394.07651861 310.92583451 -390.3333975 311.00843023 -386.54223633 311.10302734 C-385.51549805 311.1165625 -384.48875977 311.13009766 -383.4309082 311.14404297 C-380.90497724 311.17928852 -378.38012973 311.22856035 -375.85473633 311.29052734 C-375.8584235 310.72399382 -375.86211067 310.15746029 -375.86590958 309.57375908 C-375.9543174 295.77709433 -376.02021795 281.98047933 -376.06198502 268.18359184 C-376.08286233 261.5114341 -376.11118317 254.83952049 -376.15649414 248.16748047 C-376.19994573 241.72896438 -376.22387238 235.29064495 -376.2342453 228.85199356 C-376.24163781 226.39518259 -376.25607351 223.93838241 -376.27765656 221.48165512 C-376.3066803 218.04124415 -376.31069261 214.60164646 -376.30883789 211.16113281 C-376.33040955 209.63659233 -376.33040955 209.63659233 -376.35241699 208.08125305 C-376.31886999 202.33282671 -375.89564904 198.72767043 -371.85473633 194.29052734 C-367.90510278 191.12425419 -364.7603538 190.90803431 -359.77294922 190.88647461 C-358.73292503 190.87617973 -358.73292503 190.87617973 -357.67189026 190.86567688 C-355.39018005 190.84744288 -353.1091597 190.8512413 -350.82739258 190.85693359 C-349.23465248 190.85237003 -347.64191435 190.84706393 -346.04917908 190.84104919 C-342.71450796 190.83212472 -339.38007641 190.83453341 -336.04541016 190.84448242 C-331.78041662 190.85596959 -327.51625136 190.83576183 -323.25136662 190.80656528 C-319.96299522 190.78818352 -316.67482157 190.78849966 -313.38641167 190.7942028 C-311.8143949 190.79435579 -310.24236453 190.78833038 -308.6703968 190.77591133 C-306.46838157 190.7609653 -304.26788693 190.77170259 -302.06591797 190.78881836 C-300.18991661 190.78906761 -300.18991661 190.78906761 -298.27601624 190.7893219 C-293.25886564 191.52431677 -290.34000365 193.6258078 -287.00102234 197.36820984 C-285.22870348 201.88652236 -285.46329763 206.23782209 -285.51416016 211.04760742 C-285.51350304 212.67267212 -285.51350304 212.67267212 -285.51283264 214.33056641 C-285.51492067 217.90724787 -285.53825314 221.48345913 -285.56176758 225.06005859 C-285.56736346 227.54155725 -285.5716336 230.02305922 -285.57463074 232.50456238 C-285.58608001 239.03287928 -285.61554825 245.56099567 -285.64874268 252.0892334 C-285.68106379 258.75199604 -285.69313572 265.41481702 -285.70825195 272.07763672 C-285.74041762 285.14870249 -285.79318656 298.21956687 -285.85473633 311.29052734 C-276.28473633 311.29052734 -266.71473633 311.29052734 -256.85473633 311.29052734 C-256.86520996 307.06111328 -256.87568359 302.83169922 -256.88647461 298.47412109 C-256.91961381 284.50031537 -256.94180773 270.52650809 -256.95836067 256.55267334 C-256.96866392 248.08034255 -256.98270605 239.60804904 -257.00561523 231.13574219 C-257.02557826 223.74945519 -257.03845968 216.36319521 -257.04291332 208.97688198 C-257.04551577 205.0675516 -257.0516128 201.15829849 -257.06619644 197.24899292 C-257.0798264 193.56529743 -257.08394808 189.88171063 -257.08095169 186.19799232 C-257.08175953 184.20995824 -257.09249274 182.22193584 -257.10357666 180.2339325 C-257.06837189 164.90148211 -257.06837189 164.90148211 -252.41723633 159.41552734 C-247.95739797 155.7171248 -245.7542802 155.03497397 -240 155 C-239.3069426 154.99328278 -238.61388519 154.98656555 -237.89982605 154.97964478 C-235.60737953 154.96063925 -233.3152255 154.95673905 -231.02270508 154.95458984 C-229.42710754 154.94816261 -227.83151119 154.9414343 -226.23591614 154.93441772 C-222.889346 154.92243783 -219.54287913 154.91873752 -216.19628906 154.91992188 C-211.91558204 154.92012486 -207.63554044 154.89284743 -203.35499096 154.85837746 C-200.05805952 154.83609607 -196.76128773 154.83208474 -193.46428871 154.83314133 C-191.8866783 154.83078628 -190.30906343 154.82196809 -188.73152733 154.80647659 C-186.51976922 154.78679467 -184.30943926 154.79266217 -182.09765625 154.8046875 C-180.21260628 154.80041245 -180.21260628 154.80041245 -178.28947449 154.79605103 C-174.13955242 155.3934876 -172.06050367 156.61539678 -168.85473633 159.29052734 C-166.0623701 163.11265142 -165.48193469 165.77361971 -165.49397278 170.4724884 C-165.48778679 172.33811935 -165.48778679 172.33811935 -165.48147583 174.24143982 C-165.49209182 175.61172704 -165.50299623 176.98201205 -165.51416016 178.35229492 C-165.51500676 179.8012897 -165.51453064 181.25028576 -165.51283264 182.69927979 C-165.51197255 186.62665749 -165.52960049 190.55375985 -165.55055451 194.48107362 C-165.56931897 198.58768455 -165.57107157 202.69430191 -165.57463074 206.8009491 C-165.58395189 214.57464823 -165.6085666 222.34822066 -165.63867921 230.12186402 C-165.67222105 238.97306333 -165.68870868 247.82426872 -165.70376551 256.67551577 C-165.73511613 274.88060603 -165.79012905 293.08552263 -165.85473633 311.29052734 C-156.28473633 311.29052734 -146.71473633 311.29052734 -136.85473633 311.29052734 C-136.85917755 308.85278931 -136.86361877 306.41505127 -136.86819458 303.90344238 C-136.90905866 280.94875099 -136.93882549 257.99406439 -136.95836067 235.03934479 C-136.96867133 223.23764103 -136.9827277 211.43596397 -137.00561523 199.63427734 C-137.02555548 189.34741622 -137.03845429 179.06057443 -137.04291332 168.77369452 C-137.04551961 163.32736155 -137.05164126 157.88108391 -137.06619644 152.43476868 C-137.07979032 147.30651579 -137.08395529 142.17834091 -137.08095169 137.05007172 C-137.08150104 135.16996079 -137.08546769 133.28984721 -137.09314728 131.40975189 C-137.10313679 128.83756668 -137.10069064 126.26567381 -137.09524536 123.69348145 C-137.10398389 122.58449674 -137.10398389 122.58449674 -137.11289895 121.45310831 C-137.07725667 115.19953736 -136.58937564 109.33651217 -132.41723633 104.41552734 C-127.95739797 100.7171248 -125.7542802 100.03497397 -120 100 C-118.96041389 99.98992416 -118.96041389 99.98992416 -117.89982605 99.97964478 C-115.60737953 99.96063925 -113.3152255 99.95673905 -111.02270508 99.95458984 C-109.42710754 99.94816261 -107.83151119 99.9414343 -106.23591614 99.93441772 C-102.889346 99.92243783 -99.54287913 99.91873752 -96.19628906 99.91992188 C-91.91558204 99.92012486 -87.63554044 99.89284743 -83.35499096 99.85837746 C-80.05805952 99.83609607 -76.76128773 99.83208474 -73.46428871 99.83314133 C-71.8866783 99.83078628 -70.30906343 99.82196809 -68.73152733 99.80647659 C-66.51976922 99.78679467 -64.30943926 99.79266217 -62.09765625 99.8046875 C-60.21260628 99.80041245 -60.21260628 99.80041245 -58.28947449 99.79605103 C-53.33307141 100.50959128 -50.2703999 102.46487787 -47.20635796 106.41628742 C-45.44693218 110.15772785 -45.44811108 113.51198542 -45.49397278 117.5605011 C-45.4914095 118.3896508 -45.48884623 119.2188005 -45.48620528 120.07307595 C-45.48126686 122.84928995 -45.49776124 125.62495921 -45.51416016 128.40112305 C-45.51500642 130.3919829 -45.51453131 132.38284369 -45.51283264 134.373703 C-45.51197122 139.77827515 -45.52962086 145.18264792 -45.55055451 150.5871737 C-45.56929678 156.23528552 -45.57106982 161.8834018 -45.57463074 167.53153992 C-45.58395839 178.22703965 -45.60858199 188.92244749 -45.63867921 199.61790675 C-45.67220074 211.79431982 -45.68870358 223.97073725 -45.70376551 236.14718497 C-45.73513086 261.19501845 -45.78850909 286.24276388 -45.85473633 311.29052734 C-36.28473633 311.29052734 -26.71473633 311.29052734 -16.85473633 311.29052734 C-16.85917755 307.59998169 -16.86361877 303.90943604 -16.86819458 300.10705566 C-16.9079944 266.26240822 -16.93785124 232.41776369 -16.95686699 198.57309797 C-16.95936839 194.13711084 -16.96195704 189.70112377 -16.96459961 185.26513672 C-16.96538654 183.94045149 -16.96538654 183.94045149 -16.96618937 182.58900493 C-16.97489148 168.29044439 -16.9906604 153.99189994 -17.00904192 139.69334894 C-17.02774634 125.02123031 -17.0388542 110.3491201 -17.04291332 95.67699003 C-17.04565725 86.62384306 -17.05432316 77.57074156 -17.07056926 68.51760858 C-17.08114283 62.30916073 -17.0843361 56.10073637 -17.08173908 49.89228016 C-17.08045838 46.31058661 -17.08241889 42.72897251 -17.09314728 39.14729309 C-17.10470154 35.26145548 -17.10070811 31.37572107 -17.09524536 27.48986816 C-17.10398389 25.79724122 -17.10398389 25.79724122 -17.11289895 24.07041979 C-17.05896817 9.89039054 -17.05896817 9.89039054 -12.41723633 4.41552734 C-7.95739797 0.7171248 -5.7542802 0.03497397 0 0 Z " fill="#000000" transform="translate(406.854736328125,170.70947265625)"/>
<path d="M0 0 C5.32130083 5.18826831 7.31667016 11.31664363 9.15722656 18.31933594 C9.39189636 19.18051025 9.62656616 20.04168457 9.86834717 20.92895508 C10.63596187 23.75729096 11.38891819 26.58927304 12.140625 29.421875 C12.67252239 31.4034673 13.20489913 33.38493099 13.73773193 35.36627197 C14.85042292 39.51358039 15.95553872 43.66281804 17.05566406 47.81347656 C18.46071365 53.11115126 19.88709728 58.40280763 21.31961441 63.69311142 C22.4239757 67.78283565 23.515485 71.87590899 24.60338593 75.97003937 C25.12381459 77.92144133 25.64846833 79.87172189 26.1775589 81.82079315 C32.55232726 105.36069046 32.55232726 105.36069046 29.3125 113.375 C25.64910067 117.54369578 22.45227983 120.26920001 16.875 120.75 C12.17616261 120.67310993 8.20907412 119.35177252 4.5 116.4375 C0.18569839 111.08563767 -1.22242643 105.26809776 -2.953125 98.6953125 C-3.41075226 97.01004959 -3.41075226 97.01004959 -3.87762451 95.29074097 C-4.84542916 91.71735861 -5.7978982 88.14009463 -6.75 84.5625 C-7.40524096 82.13254019 -8.06147989 79.70284924 -8.71875 77.2734375 C-10.32407425 71.33119112 -11.91684227 65.38568807 -13.5 59.4375 C-14.16 59.4375 -14.82 59.4375 -15.5 59.4375 C-16.85357716 61.53755793 -18.0914254 63.63645112 -19.3125 65.8125 C-29.78143931 83.85068489 -43.14554382 100.46879465 -56.5 116.4375 C-56.94037598 116.96424316 -57.38075195 117.49098633 -57.83447266 118.03369141 C-69.37766936 131.79318188 -81.69898799 144.72263625 -94.375 157.4375 C-94.86723053 157.93240936 -95.35946106 158.42731873 -95.86660767 158.93722534 C-101.56426515 164.6584195 -107.34876001 170.20359352 -113.5 175.4375 C-114.6681383 176.45925748 -115.83482931 177.48267217 -117 178.5078125 C-131.95334503 191.58456786 -147.37372235 203.8355838 -163.5 215.4375 C-164.29390137 216.01113281 -165.08780273 216.58476562 -165.90576172 217.17578125 C-186.54344039 232.03860044 -208.16168098 245.29316882 -230.5 257.4375 C-232.04349121 258.27812988 -232.04349121 258.27812988 -233.61816406 259.13574219 C-301.23748345 295.69842998 -375.65284219 317.51826027 -452.5 321.4375 C-453.42796387 321.48567871 -454.35592773 321.53385742 -455.31201172 321.58349609 C-470.97338947 322.30046471 -470.97338947 322.30046471 -477.5 317.4375 C-481.04711702 313.80170505 -481.78578227 310.87120215 -482 305.9375 C-481.79969749 301.0167349 -480.92917072 298.13739473 -477.5 294.4375 C-472.91196857 290.81235259 -469.76523185 289.90874729 -463.953125 289.71484375 C-463.2332843 289.68445007 -462.5134436 289.6540564 -461.77178955 289.6227417 C-460.23137609 289.55871776 -458.69062138 289.50250337 -457.1496582 289.45346069 C-453.07174947 289.32012689 -448.99714857 289.11837078 -444.921875 288.921875 C-444.10928223 288.88386276 -443.29668945 288.84585052 -442.45947266 288.8066864 C-389.93394126 286.25642314 -337.49531807 271.56045868 -289.5 250.4375 C-288.42250488 249.96344727 -287.34500977 249.48939453 -286.23486328 249.00097656 C-236.15053957 226.76932865 -189.2604468 197.70598437 -147.59765625 162.0625 C-144.69521627 159.58633043 -141.72759416 157.19788836 -138.75 154.8125 C-134.51213475 151.36808122 -130.63578461 147.71982378 -126.86328125 143.7734375 C-124.87439689 141.80756503 -122.8497261 139.98523087 -120.734375 138.16015625 C-116.45388076 134.44638094 -112.43178012 130.5175252 -108.4375 126.5 C-107.76912109 125.83548828 -107.10074219 125.17097656 -106.41210938 124.48632812 C-102.47060922 120.53716714 -98.71871446 116.47725493 -95.07446289 112.25268555 C-93.02211099 109.88654562 -90.88597219 107.60314604 -88.75 105.3125 C-83.5084509 99.55707354 -78.71081017 93.52000132 -73.97265625 87.34716797 C-72.46292 85.38941648 -70.9359574 83.44608152 -69.40625 81.50390625 C-63.28808658 73.68588958 -57.51628167 65.69259911 -52 57.4375 C-51.13701294 56.14767212 -51.13701294 56.14767212 -50.2565918 54.83178711 C-46.73594845 49.49783928 -43.57064877 44.04070144 -40.5 38.4375 C-41.18380737 38.62542114 -41.86761475 38.81334229 -42.57214355 39.00695801 C-49.04201768 40.78303874 -55.51448664 42.54929127 -61.9899826 44.30477142 C-65.31837642 45.2074503 -68.64567823 46.11379111 -71.97070312 47.02880859 C-75.80036358 48.08251869 -79.63439394 49.11975113 -83.46875 50.15625 C-84.65239136 50.48435669 -85.83603271 50.81246338 -87.05554199 51.1505127 C-100.65398521 54.79491699 -100.65398521 54.79491699 -107.6875 52.3125 C-111.76464407 49.59440396 -114.73079194 47.02826824 -116.13671875 42.29296875 C-116.98650371 36.92927226 -116.3335621 33.19057192 -113.5 28.4375 C-108.43061469 23.20916765 -103.12752591 21.80104669 -96.18359375 20.01953125 C-95.07051849 19.72032776 -93.95744324 19.42112427 -92.81063843 19.112854 C-89.19011701 18.14334331 -85.56418051 17.19618517 -81.9375 16.25 C-79.4425972 15.5884967 -76.9480509 14.92564739 -74.45385742 14.26147461 C-70.70060504 13.26287266 -66.94694264 12.26605474 -63.19142151 11.27601624 C-55.79384989 9.32505304 -48.41630306 7.31668533 -41.0546875 5.234375 C-39.36930533 4.76166571 -37.68384291 4.28924243 -35.99829102 3.81713867 C-33.68978349 3.17054384 -31.38281154 2.52033106 -29.07980347 1.85440063 C-8.89318512 -3.97017193 -8.89318512 -3.97017193 0 0 Z " fill="#000000" transform="translate(481.5,1.5625)"/>
</svg>
