<?xml version="1.0" encoding="UTF-8"?>
<svg version="1.1" xmlns="http://www.w3.org/2000/svg" width="512" height="512">
<path d="M0 0 C0.65867195 -0.00205263 1.3173439 -0.00410527 1.99597561 -0.0062201 C4.19461963 -0.01185722 6.39320035 -0.01043694 8.59185028 -0.00901413 C10.18762455 -0.01159966 11.78339817 -0.01461335 13.37917089 -0.01801753 C17.75821014 -0.02606883 22.13723297 -0.02787606 26.51627874 -0.028615 C31.24178092 -0.03046884 35.96727464 -0.03801789 40.69277191 -0.04475021 C51.02361243 -0.05832125 61.35444906 -0.06435647 71.68529701 -0.06876087 C78.13943438 -0.07152564 84.59357025 -0.07576345 91.0477066 -0.08026505 C108.92697556 -0.09245661 126.80624333 -0.10275582 144.68551636 -0.10614014 C146.40138719 -0.10646949 146.40138719 -0.10646949 148.15192208 -0.10680549 C149.87183892 -0.10713291 149.87183892 -0.10713291 151.62650156 -0.10746694 C153.94987138 -0.1079104 156.2732412 -0.10835696 158.59661102 -0.10880661 C159.74907639 -0.10902804 160.90154175 -0.10924947 162.08893031 -0.10947761 C180.75369827 -0.11342375 199.41842714 -0.13087267 218.08318001 -0.15416613 C237.25865603 -0.17790322 256.43411246 -0.19034308 275.6096034 -0.19150805 C286.3707616 -0.19242354 297.13186887 -0.19814395 307.893013 -0.21632767 C317.05835264 -0.23176055 326.22362563 -0.23683037 335.3889758 -0.22858956 C340.06119775 -0.22469421 344.7332856 -0.22555793 349.40549088 -0.23964691 C353.69165397 -0.252453 357.97758312 -0.25112999 362.2637462 -0.2390562 C363.80551865 -0.23711074 365.34730805 -0.24012373 366.88905674 -0.24890056 C385.94209672 -0.3504047 402.83483823 3.1615662 418.12102509 15.13142776 C418.81969696 15.66509964 419.51836884 16.19877151 420.23821259 16.74861526 C433.26184219 27.33981599 441.71001193 43.96342314 443.4906168 60.58057022 C443.63095076 64.16766761 443.65476045 67.73505237 443.62895966 71.32478714 C443.63358199 72.69633263 443.63994375 74.06787315 443.64786863 75.43940353 C443.6644027 79.16620475 443.65638931 82.89259066 443.64392376 86.6193924 C443.63480949 90.65492541 443.64887434 94.69039094 443.65984344 98.72591019 C443.67756573 106.61487139 443.67381688 114.50367977 443.66219288 122.39264679 C443.65313395 128.80810925 443.65194516 135.22352909 443.65628815 141.63899612 C443.65690108 142.55447708 443.65751401 143.46995803 443.65814552 144.41318083 C443.65942451 146.27336313 443.66072136 148.13354541 443.66203588 149.99372768 C443.67342325 167.40847144 443.66035697 184.82313077 443.63883442 202.23786068 C443.62096512 217.15815446 443.62406974 232.07832373 443.64250946 246.99861526 C443.6639488 264.35397514 443.67232479 281.70926115 443.66006041 299.06463242 C443.6587863 300.91770807 443.65752882 302.77078373 443.65628815 304.62385941 C443.65567104 305.53544422 443.65505394 306.44702903 443.65441814 307.38623762 C443.65097442 313.78886797 443.65677242 320.1914512 443.66620636 326.59407425 C443.67746184 334.40409711 443.67431206 342.21395931 443.65308338 350.02396393 C443.64262048 354.00350911 443.63836907 357.98278708 443.65167999 361.96232986 C443.66370952 365.61419086 443.65687045 369.26554015 443.63576978 372.91735554 C443.62927354 374.84493277 443.64214475 376.7725463 443.65599871 378.70008469 C443.48515858 397.95631709 435.68593137 414.71714123 422.12102509 428.13142776 C408.59808917 439.93501897 392.16145867 446.24372957 374.24205017 446.26285553 C373.58337822 446.26490816 372.92470627 446.2669608 372.24607456 446.26907563 C370.04743054 446.27471275 367.84884982 446.27329247 365.65019989 446.27186966 C364.05442562 446.27445519 362.45865201 446.27746888 360.86287928 446.28087306 C356.48384003 446.28892436 352.1048172 446.29073159 347.72577143 446.29147053 C343.00026925 446.29332437 338.27477553 446.30087342 333.54927826 446.30760574 C323.21843774 446.32117678 312.88760111 446.327212 302.55675316 446.3316164 C296.10261579 446.33438117 289.64847992 446.33861898 283.19434357 446.34312057 C265.31507461 446.35531214 247.43580684 446.36561135 229.55653381 446.36899567 C228.41261993 446.36921523 227.26870604 446.3694348 226.09012809 446.36966102 C224.94351686 446.3698793 223.79690563 446.37009757 222.61554861 446.37032247 C220.29217879 446.37076593 217.96880897 446.37121249 215.64543915 446.37166214 C214.49297378 446.37188357 213.34050842 446.372105 212.15311986 446.37233314 C193.4883519 446.37627928 174.82362303 446.3937282 156.15887016 446.41702166 C136.98339414 446.44075875 117.80793771 446.45319861 98.63244677 446.45436358 C87.87128858 446.45527907 77.1101813 446.46099948 66.34903717 446.4791832 C57.18369753 446.49461608 48.01842454 446.4996859 38.85307437 446.49144509 C34.18085242 446.48754974 29.50876457 446.48841346 24.8365593 446.50250244 C20.5503962 446.51530853 16.26446705 446.51398552 11.97830397 446.50191173 C10.43653152 446.49996627 8.89474212 446.50297926 7.35299343 446.51175609 C-11.70004655 446.61326023 -28.59278806 443.10128933 -43.87897491 431.13142776 C-44.57764679 430.59775589 -45.27631866 430.06408401 -45.99616241 429.51424026 C-59.01979202 418.92303954 -67.46796176 402.29943239 -69.24856663 385.68228531 C-69.38890059 382.09518791 -69.41271028 378.52780316 -69.38690948 374.93806839 C-69.39153181 373.5665229 -69.39789358 372.19498238 -69.40581846 370.823452 C-69.42235253 367.09665078 -69.41433914 363.37026487 -69.40187359 359.64346313 C-69.39275932 355.60793012 -69.40682417 351.57246459 -69.41779327 347.53694534 C-69.43551556 339.64798414 -69.43176671 331.75917576 -69.42014271 323.87020874 C-69.41108378 317.45474628 -69.40989499 311.03932644 -69.41423798 304.62385941 C-69.41485091 303.70837845 -69.41546384 302.7928975 -69.41609535 301.8496747 C-69.41737434 299.9894924 -69.41867119 298.12931012 -69.41998571 296.26912785 C-69.43137308 278.85438409 -69.4183068 261.43972476 -69.39678425 244.02499485 C-69.37891494 229.10470107 -69.38201957 214.1845318 -69.40045929 199.26424026 C-69.42189863 181.90888039 -69.43027462 164.55359438 -69.41801023 147.19822311 C-69.41673613 145.34514746 -69.41547865 143.4920718 -69.41423798 141.63899612 C-69.41362087 140.72741131 -69.41300377 139.8158265 -69.41236797 138.87661791 C-69.40892425 132.47398756 -69.41472225 126.07140433 -69.42415619 119.66878128 C-69.43541167 111.85875842 -69.43226189 104.04889622 -69.41103321 96.2388916 C-69.4005703 92.25934642 -69.3963189 88.28006845 -69.40962982 84.30052567 C-69.42165935 80.64866467 -69.41482028 76.99731538 -69.39371961 73.34549999 C-69.38722337 71.41792276 -69.40009458 69.49030923 -69.41394854 67.56277084 C-69.24310841 48.30653844 -61.4438812 31.5457143 -47.87897491 18.13142776 C-34.356039 6.32783656 -17.9194085 0.01912596 0 0 Z M44.02263641 67.87947464 C40.96117688 73.42825088 41.62898157 79.55895912 41.73040009 85.72127151 C41.73605988 87.02093353 41.74171967 88.32059555 41.74755096 89.65964127 C41.76273305 93.09416039 41.80194814 96.52798949 41.84636688 99.96223831 C41.88748183 103.47492008 41.90559635 106.98771471 41.92571259 110.50056839 C41.96845167 117.37780274 42.03661079 124.25458201 42.12102509 131.13142776 C40.95410126 131.34073929 40.95410126 131.34073929 39.76360321 131.55427933 C33.24403476 132.97817621 27.43590679 138.24879847 23.12102509 143.13142776 C22.55512665 143.75533401 21.98922821 144.37924026 21.40618134 145.02205276 C14.20911484 153.48202945 10.76342444 164.0160078 11.12102509 175.13142776 C12.87343626 189.85842169 18.74176898 200.63162837 30.12102509 210.13142776 C35.67199534 213.96233749 35.67199534 213.96233749 42.12102509 215.13142776 C42.11733791 215.94441865 42.11365074 216.75740953 42.10985184 217.59503651 C42.02148486 237.38392363 41.95530769 257.1727767 41.9137764 276.96181965 C41.89315793 286.53169278 41.865051 296.10143414 41.81926727 305.67122269 C41.77937762 314.0130055 41.75358707 322.35469288 41.74467111 330.69656843 C41.73945996 335.11288769 41.72722683 339.52893394 41.69810486 343.94516563 C41.67090207 348.10416001 41.66258986 352.26276959 41.66859436 356.42184448 C41.66749629 357.94601726 41.65957118 359.47020324 41.64420319 360.99429893 C41.40093935 371.75855257 41.40093935 371.75855257 46.12102509 381.13142776 C49.07320526 383.66186792 52.34622039 385.03010374 56.24211884 385.25252151 C60.49587623 384.87458844 63.85165977 383.85589886 67.12102509 381.13142776 C72.46254091 374.41664059 71.65750199 366.9104856 71.57512665 358.74104691 C71.57399735 357.17353215 71.57463363 355.60601527 71.57689667 354.03850174 C71.57804155 349.79712916 71.55456904 345.5562116 71.52660084 341.31494451 C71.50154944 336.87736666 71.49924224 332.4397777 71.49449921 328.00214005 C71.4820804 319.60514702 71.44927365 311.20836298 71.40910125 302.81146187 C71.36434942 293.24923774 71.34238793 283.68700349 71.32231951 274.12470067 C71.28054002 254.46015984 71.21020929 234.79580699 71.12102509 215.13142776 C71.9011496 214.98971146 72.68127411 214.84799515 73.48503876 214.70198441 C81.16341692 213.04000703 88.40148159 206.16515309 93.12102509 200.13142776 C100.80695153 187.58884308 103.77795285 175.68526793 100.43743134 161.15877151 C96.49845856 147.59119863 88.11133095 138.80110865 75.98040009 131.91658401 C73.99680005 130.9369235 73.99680005 130.9369235 71.12102509 131.13142776 C71.13434875 130.04600945 71.13434875 130.04600945 71.14794159 128.93866348 C71.22830284 122.0979287 71.28909852 115.25726506 71.32827377 108.4161787 C71.34909199 104.89958771 71.37730206 101.38338883 71.4227829 97.86702347 C71.47481642 93.81840258 71.49401779 89.77018947 71.51165009 85.72127151 C71.53229523 84.46684753 71.55294037 83.21242355 71.57421112 81.91998672 C71.57595518 75.10423374 71.31387791 70.62238197 67.12102509 65.13142776 C64.00932844 62.66310379 60.49674633 61.40657201 56.62102509 60.63142776 C51.24546228 61.70654033 47.38753114 63.4728132 44.02263641 67.87947464 Z M177.12102509 65.13142776 C172.53558701 70.80289065 171.9950089 75.50144249 172.00077057 82.61709976 C171.9993959 83.92816696 171.99802124 85.23923416 171.99660492 86.59003067 C172.00014364 88.03587746 172.00377844 89.48172401 172.00749969 90.92757034 C172.00778187 92.45538201 172.00762323 93.98319381 172.00705719 95.5110054 C172.00677041 99.6531511 172.01264783 103.79526781 172.01963115 107.93740678 C172.02588458 112.26824817 172.02647006 116.59909024 172.02765656 120.92993546 C172.030764 129.12857178 172.03896949 137.32719476 172.04900604 145.5258252 C172.06018539 154.8607073 172.06568223 164.19559004 172.07070148 173.53047717 C172.08115258 192.7308016 172.09874067 211.93111361 172.12102509 231.13142776 C171.17791473 231.43685501 170.23480438 231.74228226 169.26311493 232.05696487 C158.99020467 235.56986915 151.21729968 243.73106297 146.24602509 253.19392776 C141.26246549 264.15104701 140.08768374 276.31821063 144.15227509 287.83455276 C149.09798939 299.56068185 156.47937159 308.58778324 168.12102509 314.13142776 C169.44948891 314.48366738 170.78236464 314.82017689 172.12102509 315.13142776 C172.11436325 315.80048645 172.10770142 316.46954514 172.10083771 317.15887833 C172.03423277 324.1510625 171.9891202 331.14315585 171.95623016 338.13557816 C171.94118624 340.74173522 171.92074614 343.34786714 171.89470673 345.95393753 C171.85813084 349.70977882 171.84125414 353.465284 171.82805634 357.22127151 C171.81257248 358.37787781 171.79708862 359.5344841 171.78113556 360.72613907 C171.77946827 368.82341933 172.2586796 375.86017578 177.74602509 382.13142776 C181.94132885 384.6175337 185.25126986 385.55562247 190.12102509 385.13142776 C195.51265481 383.41879244 198.48377847 380.10162331 201.12102509 375.13142776 C202.03172282 371.54607114 202.24303568 368.20603628 202.23455048 364.51497269 C202.23447495 363.41420898 202.23439941 362.31344528 202.23432159 361.1793251 C202.22916031 360.00207367 202.22399902 358.82482224 202.21868134 357.61189651 C202.21726639 356.39818878 202.21585144 355.18448105 202.21439362 353.93399429 C202.20880174 350.06228025 202.19625066 346.19062429 202.18352509 342.31892776 C202.17850904 339.69197548 202.17394631 337.06502228 202.16985321 334.43806839 C202.15883496 328.00250174 202.14210485 321.5669689 202.12102509 315.13142776 C203.53569061 314.6732869 203.53569061 314.6732869 204.97893524 314.20589066 C215.25184551 310.69298638 223.02475049 302.53179256 227.99602509 293.06892776 C232.97958468 282.11180852 234.15436643 269.9446449 230.08977509 258.42830276 C225.14406078 246.70217368 217.76267858 237.67507229 206.12102509 232.13142776 C204.79256126 231.77918815 203.45968553 231.44267864 202.12102509 231.13142776 C202.12517315 229.94562921 202.12517315 229.94562921 202.12940502 228.73587513 C202.19572342 209.48036109 202.24533416 190.22486991 202.2764616 170.96926594 C202.29191558 161.6573113 202.31297696 152.34543301 202.34734344 143.03352737 C202.37729084 134.91512847 202.39661077 126.79678488 202.40329057 118.67833227 C202.40719379 114.38160729 202.41633617 110.08504049 202.43821526 105.78836632 C202.45866486 101.73939251 202.46484186 97.69064119 202.46034813 93.64162064 C202.46116956 92.1602234 202.46708462 90.67881828 202.47864151 89.1974659 C202.6891952 75.66400557 202.6891952 75.66400557 196.49602509 64.13142776 C189.69314463 60.1000912 183.25366348 59.81116485 177.12102509 65.13142776 Z M305.02263641 67.87947464 C301.96117688 73.42825088 302.62898157 79.55895912 302.73040009 85.72127151 C302.73605988 87.02093353 302.74171967 88.32059555 302.74755096 89.65964127 C302.76273305 93.09416039 302.80194814 96.52798949 302.84636688 99.96223831 C302.88748183 103.47492008 302.90559635 106.98771471 302.92571259 110.50056839 C302.96845167 117.37780274 303.03661079 124.25458201 303.12102509 131.13142776 C301.95410126 131.34073929 301.95410126 131.34073929 300.76360321 131.55427933 C294.24403476 132.97817621 288.43590679 138.24879847 284.12102509 143.13142776 C283.55512665 143.75533401 282.98922821 144.37924026 282.40618134 145.02205276 C275.20911484 153.48202945 271.76342444 164.0160078 272.12102509 175.13142776 C273.87343626 189.85842169 279.74176898 200.63162837 291.12102509 210.13142776 C296.67199534 213.96233749 296.67199534 213.96233749 303.12102509 215.13142776 C303.11733791 215.94441865 303.11365074 216.75740953 303.10985184 217.59503651 C303.02148486 237.38392363 302.95530769 257.1727767 302.9137764 276.96181965 C302.89315793 286.53169278 302.865051 296.10143414 302.81926727 305.67122269 C302.77937762 314.0130055 302.75358707 322.35469288 302.74467111 330.69656843 C302.73945996 335.11288769 302.72722683 339.52893394 302.69810486 343.94516563 C302.67090207 348.10416001 302.66258986 352.26276959 302.66859436 356.42184448 C302.66749629 357.94601726 302.65957118 359.47020324 302.64420319 360.99429893 C302.40093935 371.75855257 302.40093935 371.75855257 307.12102509 381.13142776 C310.07320526 383.66186792 313.34622039 385.03010374 317.24211884 385.25252151 C321.49587623 384.87458844 324.85165977 383.85589886 328.12102509 381.13142776 C333.46254091 374.41664059 332.65750199 366.9104856 332.57512665 358.74104691 C332.57399735 357.17353215 332.57463363 355.60601527 332.57689667 354.03850174 C332.57804155 349.79712916 332.55456904 345.5562116 332.52660084 341.31494451 C332.50154944 336.87736666 332.49924224 332.4397777 332.49449921 328.00214005 C332.4820804 319.60514702 332.44927365 311.20836298 332.40910125 302.81146187 C332.36434942 293.24923774 332.34238793 283.68700349 332.32231951 274.12470067 C332.28054002 254.46015984 332.21020929 234.79580699 332.12102509 215.13142776 C332.9011496 214.98971146 333.68127411 214.84799515 334.48503876 214.70198441 C342.16341692 213.04000703 349.40148159 206.16515309 354.12102509 200.13142776 C361.80695153 187.58884308 364.77795285 175.68526793 361.43743134 161.15877151 C357.49845856 147.59119863 349.11133095 138.80110865 336.98040009 131.91658401 C334.99680005 130.9369235 334.99680005 130.9369235 332.12102509 131.13142776 C332.13434875 130.04600945 332.13434875 130.04600945 332.14794159 128.93866348 C332.22830284 122.0979287 332.28909852 115.25726506 332.32827377 108.4161787 C332.34909199 104.89958771 332.37730206 101.38338883 332.4227829 97.86702347 C332.47481642 93.81840258 332.49401779 89.77018947 332.51165009 85.72127151 C332.53229523 84.46684753 332.55294037 83.21242355 332.57421112 81.91998672 C332.57595518 75.10423374 332.31387791 70.62238197 328.12102509 65.13142776 C325.00932844 62.66310379 321.49674633 61.40657201 317.62102509 60.63142776 C312.24546228 61.70654033 308.38753114 63.4728132 305.02263641 67.87947464 Z " fill="#000000" transform="translate(68.87897491455078,32.86857223510742)"/>
<path d="M0 0 C4.88377853 3.2937111 7.44538164 7.05358763 8.6875 12.8125 C8.78951432 18.46862746 7.44267692 22.46440041 3.6875 26.8125 C-0.89815357 30.22926149 -4.37290231 31.48828864 -10.10546875 31.1953125 C-15.14230789 30.32166606 -18.33848662 27.94030496 -21.6875 24.0625 C-24.35585386 18.72579228 -25.03611698 14.27040547 -23.25 8.625 C-21.45809712 4.43013058 -19.04306342 2.37726235 -15.3125 -0.1875 C-10.1060264 -1.9229912 -5.16315911 -1.85094383 0 0 Z " fill="#000000" transform="translate(394.3125,191.1875)"/>
<path d="M0 0 C4.88377853 3.2937111 7.44538164 7.05358763 8.6875 12.8125 C8.78951432 18.46862746 7.44267692 22.46440041 3.6875 26.8125 C-0.89815357 30.22926149 -4.37290231 31.48828864 -10.10546875 31.1953125 C-15.14230789 30.32166606 -18.33848662 27.94030496 -21.6875 24.0625 C-24.35585386 18.72579228 -25.03611698 14.27040547 -23.25 8.625 C-21.45809712 4.43013058 -19.04306342 2.37726235 -15.3125 -0.1875 C-10.1060264 -1.9229912 -5.16315911 -1.85094383 0 0 Z " fill="#000000" transform="translate(133.3125,191.1875)"/>
<path d="M0 0 C4.23301121 2.82200747 7.17159664 5.95228992 8.8125 10.875 C9.35475459 15.54194522 9.2823456 18.95271048 7.125 23.1875 C3.99134939 26.82931017 0.61922488 30.56706795 -4.359375 31.11328125 C-10.20596537 31.28159218 -13.61942863 30.89925335 -18.1875 26.875 C-22.58643104 21.88161882 -23.54426337 18.96484773 -23.46875 12.4140625 C-22.92031999 7.4629582 -20.18704217 4.77702586 -16.625 1.5625 C-11.43239458 -2.03238068 -5.78482046 -2.04170134 0 0 Z " fill="#000000" transform="translate(263.1875,291.125)"/>
</svg>
