<?xml version="1.0" encoding="UTF-8"?>
<svg version="1.1" xmlns="http://www.w3.org/2000/svg" width="512" height="512">
<path d="M0 0 C1.12563103 0.00212242 1.12563103 0.00212242 2.27400208 0.00428772 C4.66838585 0.00988065 7.06267578 0.02243181 9.45703125 0.03515625 C11.08137886 0.04017217 12.70572793 0.04473491 14.33007812 0.04882812 C18.309961 0.05899645 22.28964118 0.07857313 26.26953125 0.09765625 C25.60953125 5.37765625 24.94953125 10.65765625 24.26953125 16.09765625 C13.37953125 16.09765625 2.48953125 16.09765625 -8.73046875 16.09765625 C-8.73046875 68.89765625 -8.73046875 121.69765625 -8.73046875 176.09765625 C81.02953125 176.09765625 170.78953125 176.09765625 263.26953125 176.09765625 C263.26953125 123.29765625 263.26953125 70.49765625 263.26953125 16.09765625 C199.90953125 16.09765625 136.54953125 16.09765625 71.26953125 16.09765625 C71.26953125 9.85164206 71.49256404 8.66977446 75.26953125 4.09765625 C79.87134138 0.40752063 82.93573435 -0.40451188 88.79522705 -0.41700745 C89.53242092 -0.42395297 90.26961479 -0.4308985 91.02914786 -0.4380545 C93.48881907 -0.4562881 95.94752175 -0.44607078 98.40722656 -0.43579102 C100.17512227 -0.44285155 101.94301193 -0.45159714 103.71089172 -0.4618988 C108.5066086 -0.48439263 113.30199541 -0.4814523 118.09774494 -0.47257733 C122.10596061 -0.46746359 126.11411446 -0.47476351 130.12232375 -0.48204941 C139.58306904 -0.49904988 149.04365306 -0.4954828 158.50439453 -0.47875977 C168.25086937 -0.46185383 177.99689583 -0.47765164 187.74332166 -0.50998265 C196.12148254 -0.53671768 204.49950419 -0.54394351 212.87770343 -0.53546757 C217.87695686 -0.53054785 222.87594082 -0.53270161 227.87516022 -0.55325508 C232.58018325 -0.57167257 237.28456446 -0.56557961 241.98955345 -0.54105568 C243.71079123 -0.53606621 245.4320784 -0.53948887 247.15327644 -0.55220413 C256.358465 -0.61479577 264.50033171 -0.55977123 272.26953125 5.09765625 C274.5234375 7.44921875 274.5234375 7.44921875 275.83203125 9.72265625 C276.28707031 10.47804687 276.74210937 11.2334375 277.2109375 12.01171875 C279.35526171 16.23706609 279.42025037 19.97917153 279.4234314 24.60426331 C279.42781365 25.37564587 279.4321959 26.14702844 279.43671095 26.94178623 C279.45009937 29.53484237 279.45627797 32.12786451 279.46240234 34.72094727 C279.47030343 36.57706353 279.47857239 38.43317827 279.48718262 40.28929138 C279.51340738 46.39336682 279.52871321 52.49744913 279.54296875 58.6015625 C279.54832871 60.7035364 279.55370622 62.80551025 279.5591011 64.90748405 C279.58073271 73.65321667 279.59946811 82.39894744 279.6107235 91.14470005 C279.62695308 103.67293201 279.66010375 116.20085334 279.71712434 128.7289682 C279.75585771 137.54015243 279.77536037 146.35125371 279.78064406 155.16252083 C279.78429355 160.42343045 279.79627186 165.6840088 279.8287468 170.94482613 C279.85888612 175.89843202 279.86511827 180.85150722 279.85336304 185.80518532 C279.85314278 187.61835969 279.8614083 189.4315591 279.87901688 191.24464798 C280.04486962 209.31288972 280.04486962 209.31288972 274.26953125 217.09765625 C271.91796875 219.3515625 271.91796875 219.3515625 269.64453125 220.66015625 C268.88914062 221.11519531 268.13375 221.57023438 267.35546875 222.0390625 C264.02300718 223.73025554 261.39382015 224.22412309 257.71163082 224.23467064 C256.77130786 224.23974518 255.8309849 224.24481972 254.8621673 224.25004804 C253.30967282 224.25079468 253.30967282 224.25079468 251.72581482 224.2515564 C250.07871469 224.25812978 250.07871469 224.25812978 248.39833981 224.26483595 C244.69972159 224.27824594 241.0011272 224.2844078 237.30249023 224.29052734 C234.65820637 224.29842663 232.01392558 224.30669036 229.36964417 224.31530762 C221.41972839 224.33983014 213.46980637 224.3544596 205.51986441 224.36736768 C203.27390628 224.37108006 201.02794876 224.37505327 198.78199124 224.37912035 C184.83145816 224.40435995 170.88092408 224.42641061 156.93037319 224.4388485 C153.69894342 224.44177815 150.46751368 224.44473981 147.23608398 224.44775391 C146.4329376 224.44849996 145.62979123 224.44924601 144.80230708 224.45001467 C131.79853526 224.46266201 118.79490037 224.49587653 105.79119252 224.53755574 C92.4365618 224.58000826 79.0820011 224.60354745 65.72730309 224.60876906 C58.230787 224.61217968 50.73448479 224.62389329 43.2380352 224.6568718 C36.85201043 224.68491934 30.46624338 224.69585121 24.0801618 224.68467633 C20.82406343 224.67950127 17.56861555 224.68504571 14.31257248 224.70714188 C10.77531161 224.72983667 7.23940152 224.721535 3.70213318 224.70565796 C2.68275191 224.71954005 1.66337065 224.73342213 0.61309904 224.74772489 C-6.47464871 224.66955565 -11.76539471 222.96997965 -17.73046875 219.09765625 C-19.984375 216.74609375 -19.984375 216.74609375 -21.29296875 214.47265625 C-21.74800781 213.71726562 -22.20304688 212.961875 -22.671875 212.18359375 C-24.81619921 207.95824641 -24.88118787 204.21614097 -24.8843689 199.59104919 C-24.88875115 198.81966663 -24.8931334 198.04828406 -24.89764845 197.25352627 C-24.91103687 194.66047013 -24.91721547 192.06744799 -24.92333984 189.47436523 C-24.93124093 187.61824897 -24.93950989 185.76213423 -24.94812012 183.90602112 C-24.97434488 177.80194568 -24.98965071 171.69786337 -25.00390625 165.59375 C-25.00926621 163.4917761 -25.01464372 161.38980225 -25.0200386 159.28782845 C-25.04167021 150.54209583 -25.06040561 141.79636506 -25.071661 133.05061245 C-25.08789058 120.52238049 -25.12104125 107.99445916 -25.17806184 95.4663443 C-25.21679521 86.65516007 -25.23629787 77.84405879 -25.24158156 69.03279167 C-25.24523105 63.77188205 -25.25720936 58.5113037 -25.2896843 53.25048637 C-25.31982362 48.29688048 -25.32605577 43.34380528 -25.31430054 38.39012718 C-25.31408028 36.57695281 -25.3223458 34.7637534 -25.33995438 32.95066452 C-25.50580712 14.88242278 -25.50580712 14.88242278 -19.73046875 7.09765625 C-17.37890625 4.84375 -17.37890625 4.84375 -15.10546875 3.53515625 C-13.97238281 2.85259766 -13.97238281 2.85259766 -12.81640625 2.15625 C-8.51641358 -0.02595602 -4.7045483 -0.03334344 0 0 Z M121.26953125 194.09765625 C119.63850348 197.35971179 119.74971619 200.53321014 120.26953125 204.09765625 C121.10286458 206.26432292 121.10286458 206.26432292 123.26953125 207.09765625 C126.83397736 207.61747131 130.00747571 207.72868402 133.26953125 206.09765625 C134.90055902 202.83560071 134.78934631 199.66210236 134.26953125 196.09765625 C133.43619792 193.93098958 133.43619792 193.93098958 131.26953125 193.09765625 C127.70508514 192.57784119 124.53158679 192.46662848 121.26953125 194.09765625 Z " fill="#000000" transform="translate(216.73046875,191.90234375)"/>
<path d="M0 0 C0.77988281 0.1959375 1.55976562 0.391875 2.36328125 0.59375 C4.68890328 1.29410099 6.91974644 2.13303581 9.1875 3 C17.01991266 5.67415129 24.49438874 3.32106775 32.109375 0.8359375 C39.16625792 -0.56291207 45.66877913 3.20800659 51.98828125 5.94921875 C53.09055054 6.42103073 54.19281982 6.89284271 55.32849121 7.37895203 C58.90915984 8.9131723 62.48582991 10.45648402 66.0625 12 C68.51168549 13.05159797 70.96108439 14.10267851 73.41088867 15.15283203 C78.27113395 17.23683292 83.13002466 19.32396463 87.98828125 21.41259766 C93.85905429 23.93381574 99.73831653 26.43415081 105.625 28.91796875 C106.41182663 29.25013901 107.19865326 29.58230927 108.00932312 29.92454529 C110.88985419 31.14001077 113.77068396 32.35474561 116.65298462 33.56600952 C118.54687562 34.36223971 120.4394975 35.16148666 122.33203125 35.9609375 C123.36561768 36.39583496 124.3992041 36.83073242 125.46411133 37.27880859 C127.75 38.3125 127.75 38.3125 128.75 39.3125 C129.60984019 48.1442871 129.46098266 56.1573608 123.75 63.3125 C117.55309991 68.61947748 112.32892951 70.46083911 104.24339294 70.46640015 C103.0863191 70.47297353 103.0863191 70.47297353 101.90587002 70.4796797 C99.31281388 70.49306812 96.71979174 70.49924672 94.12670898 70.50537109 C92.27059272 70.51327218 90.41447798 70.52154114 88.55836487 70.53015137 C82.45428943 70.55637613 76.35020712 70.57168196 70.24609375 70.5859375 C68.14411985 70.59129746 66.042146 70.59667497 63.9401722 70.60206985 C55.19443958 70.62370146 46.44870881 70.64243686 37.7029562 70.65369225 C25.17472424 70.66992183 12.64680291 70.7030725 0.11868805 70.76009309 C-8.69249618 70.79882646 -17.50359746 70.81832912 -26.31486458 70.82361281 C-31.5757742 70.8272623 -36.83635255 70.83924061 -42.09716988 70.87171555 C-47.05077577 70.90185487 -52.00385097 70.90808702 -56.95752907 70.89633179 C-58.77070344 70.89611153 -60.58390285 70.90437705 -62.39699173 70.92198563 C-80.46523347 71.08783837 -80.46523347 71.08783837 -88.25 65.3125 C-90.50390625 62.9609375 -90.50390625 62.9609375 -91.8125 60.6875 C-92.26753906 59.93210938 -92.72257812 59.17671875 -93.19140625 58.3984375 C-95.3315183 54.18139015 -95.35539821 50.80090527 -95.3125 46.125 C-95.30347656 44.85269531 -95.29445313 43.58039063 -95.28515625 42.26953125 C-95.27355469 41.29371094 -95.26195313 40.31789062 -95.25 39.3125 C-87.79825186 35.46424321 -80.20746832 32.05122461 -72.5 28.75 C-70.5676877 27.91842779 -68.63586717 27.08572037 -66.7040863 26.25291443 C-65.28751998 25.64222871 -63.87081861 25.03185618 -62.45399475 24.42176819 C-56.03963597 21.65810844 -49.63434422 18.87379043 -43.23046875 16.0859375 C-42.19606659 15.63567703 -41.16166443 15.18541656 -40.09591675 14.72151184 C-35.92259474 12.90470547 -31.74940114 11.08760514 -27.57653809 9.26974487 C-24.63334535 7.98775928 -21.68975465 6.7066914 -18.74609375 5.42578125 C-17.86084518 5.03985809 -16.97559662 4.65393494 -16.06352234 4.25631714 C-3.92316314 -1.02438149 -3.92316314 -1.02438149 0 0 Z " fill="#000000" transform="translate(111.25,89.6875)"/>
<path d="M0 0 C1.15707385 -0.00657338 1.15707385 -0.00657338 2.33752292 -0.01327956 C4.93057906 -0.02666797 7.52360121 -0.03284658 10.11668396 -0.03897095 C11.97280023 -0.04687204 13.82891496 -0.05514099 15.68502808 -0.06375122 C21.78910352 -0.08997599 27.89318582 -0.10528181 33.99729919 -0.11953735 C36.09927309 -0.12489732 38.20124694 -0.13027483 40.30322075 -0.13566971 C49.04895337 -0.15730132 57.79468414 -0.17603671 66.54043674 -0.1872921 C79.0686687 -0.20352169 91.59659004 -0.23667236 104.1247049 -0.29369295 C112.93588913 -0.33242632 121.7469904 -0.35192897 130.55825752 -0.35721266 C135.81916714 -0.36086215 141.07974549 -0.37284046 146.34056282 -0.4053154 C151.29416871 -0.43545473 156.24724392 -0.44168688 161.20092201 -0.42993164 C163.01409638 -0.42971138 164.82729579 -0.4379769 166.64038467 -0.45558548 C184.70862642 -0.62143822 184.70862642 -0.62143822 192.49339294 5.15390015 C194.74729919 7.50546265 194.74729919 7.50546265 196.05589294 9.77890015 C196.51093201 10.53429077 196.96597107 11.2896814 197.43479919 12.06796265 C199.49753831 16.13254822 199.60048205 19.33790057 199.55589294 23.84140015 C199.54686951 25.02089233 199.53784607 26.20038452 199.52854919 27.4156189 C199.51114685 28.77106812 199.51114685 28.77106812 199.49339294 30.15390015 C190.57990032 32.96290886 181.66635955 35.77176476 172.7527647 38.5804491 C168.60940102 39.88603266 164.4660512 41.19166018 160.32273865 42.49740601 C159.13251256 42.87247882 159.13251256 42.87247882 157.9182415 43.25512886 C156.31577505 43.76014883 154.71333398 44.26524937 153.11091805 44.77042961 C149.08831845 46.03841407 145.06518982 47.3046717 141.04096985 48.56750488 C133.69066569 50.87558823 126.34471862 53.1944188 119.01601315 55.57034397 C115.8030904 56.61104466 112.5875119 57.64339112 109.37166786 58.67502403 C107.85992385 59.16259853 106.34949944 59.65428674 104.84053612 60.15040016 C102.75386108 60.83618161 100.66302144 61.50752764 98.57078552 62.17611694 C97.39260757 62.55938644 96.21442963 62.94265594 95.00054932 63.33753967 C89.53192267 64.61047141 84.3164702 64.7562794 78.91575623 62.97079468 C78.10044434 62.70791656 77.28513245 62.44503845 76.44511414 62.17419434 C75.57674927 61.88132538 74.7083844 61.58845642 73.81370544 61.28671265 C72.87154175 60.98006683 71.92937805 60.67342102 70.95866394 60.35748291 C68.91324363 59.6906207 66.86951175 59.01856202 64.82731628 58.34188843 C59.29146325 56.50808117 53.74311674 54.71269884 48.19651794 52.91171265 C47.02575714 52.53041199 45.85499634 52.14911133 44.64875793 51.7562561 C30.91633106 47.29411499 17.12484266 43.02393095 3.32978058 38.76024628 C0.7164475 37.95235681 -1.89655403 37.14339781 -4.50956726 36.33447456 C-11.17433377 34.27132269 -17.8400398 32.21122546 -24.50660706 30.15390015 C-24.55932831 28.10079483 -24.5966839 26.04729178 -24.62770081 23.9937439 C-24.65017883 22.85026489 -24.67265686 21.70678589 -24.69581604 20.52865601 C-24.40077803 15.26632001 -22.7485639 11.28273714 -19.50660706 7.15390015 C-13.3170344 1.84235794 -8.08050062 0.00555757 0 0 Z " fill="#000000" transform="translate(40.50660705566406,15.846099853515625)"/>
<path d="M0 0 C18.79418503 -0.11605767 37.58826786 -0.20513238 56.38273811 -0.25906086 C65.11058933 -0.28477341 73.83821292 -0.31978986 82.56591797 -0.37719727 C90.17859685 -0.42724633 97.79111077 -0.45934144 105.40394962 -0.47044247 C109.42989916 -0.47692513 113.45537705 -0.49201329 117.48117447 -0.52865028 C121.28158333 -0.56295121 125.08133275 -0.57298555 128.88188171 -0.56553841 C130.91892986 -0.56753917 132.95590855 -0.59425379 134.99276733 -0.62210083 C149.49458636 -0.54221406 160.77028422 3.96480478 171.1484375 14.09765625 C181.867797 25.39482509 184.70835126 37.74547882 184.375 52.8984375 C183.6759742 66.33471203 177.22207059 76.20308822 167.6875 85.25 C158.40078495 93.19196074 148.39103648 96.3006002 136.38378906 96.28710938 C135.44458618 96.29394241 134.5053833 96.30077545 133.53771973 96.30781555 C131.50747297 96.32135592 129.47719258 96.33043969 127.44690704 96.33552551 C124.22553319 96.34385365 121.00443754 96.36439671 117.78314209 96.38806152 C110.93880302 96.43618293 104.0944359 96.46916164 97.25 96.5 C89.32821711 96.53577274 81.40657023 96.57787996 73.48491669 96.63594055 C70.326046 96.65586882 67.16728195 96.66430103 64.00836182 96.67224121 C44.30070013 96.51611038 44.30070013 96.51611038 27 105 C20.45051977 111.68765492 17.8729804 118.62068109 17.5625 127.875 C17.77807385 137.02708965 20.2752085 144.56759074 27 151 C35.59901756 157.48041903 43.77152355 158.85131407 54.27539062 159.28076172 C68.13851076 159.86802734 78.10871118 163.53799093 87.75 173.8125 C93.11052642 180.18883393 96.13500124 187.61952064 96.11352539 195.95214844 C96.11341209 197.42322052 96.11341209 197.42322052 96.11329651 198.92401123 C96.10813522 199.97518127 96.10297394 201.02635132 96.09765625 202.109375 C96.0962413 203.19132141 96.09482635 204.27326782 96.09336853 205.38800049 C96.08777318 208.8420285 96.0752215 212.29599159 96.0625 215.75 C96.0574844 218.09244698 96.0529216 220.43489498 96.04882812 222.77734375 C96.03780527 228.51825417 96.02054379 234.25911608 96 240 C90.72 240 85.44 240 80 240 C79.970271 238.2531189 79.970271 238.2531189 79.93994141 236.47094727 C79.86338298 232.11527311 79.77474639 227.75991134 79.68261719 223.40454102 C79.64453368 221.52602341 79.60964634 219.647438 79.578125 217.76879883 C79.53202287 215.05525614 79.47410715 212.34217208 79.4140625 209.62890625 C79.40251129 208.80040665 79.39096008 207.97190704 79.37905884 207.11830139 C79.1588749 198.25151748 77.91665471 189.92107354 72 183 C65.66234342 177.67383973 57.60112373 177.01219955 49.65332031 176.76586914 C33.58376631 176.22787093 21.94813502 171.48925196 10.75 159.6875 C0.83378472 148.09224428 -1.00561152 135.22281687 -0.23828125 120.47363281 C1.04335817 107.16874495 8.75676553 97.21163323 18.60546875 88.7890625 C27.51572533 82.13180718 36.69496251 79.70061998 47.61621094 79.71289062 C48.55541382 79.70605759 49.4946167 79.69922455 50.46228027 79.69218445 C52.49252703 79.67864408 54.52280742 79.66956031 56.55309296 79.66447449 C59.77446681 79.65614635 62.99556246 79.63560329 66.21685791 79.61193848 C73.06119698 79.56381707 79.9055641 79.53083836 86.75 79.5 C94.67178289 79.46422726 102.59342977 79.42212004 110.51508331 79.36405945 C113.673954 79.34413118 116.83271805 79.33569897 119.99163818 79.32775879 C139.69929987 79.48388962 139.69929987 79.48388962 157 71 C163.54948023 64.31234508 166.1270196 57.37931891 166.4375 48.125 C166.22192615 38.97291035 163.7247915 31.43240926 157 25 C146.39695661 17.00930063 135.16452143 16.70376431 122.2668457 16.68115234 C120.92533275 16.67183096 119.58382549 16.66165909 118.24232483 16.65071106 C114.63566518 16.62364563 111.02904405 16.60833216 107.42231011 16.59528303 C103.63999072 16.57954863 99.85774884 16.55279186 96.07548523 16.5272522 C88.92893877 16.48064554 81.78237742 16.44381436 74.63575763 16.41057932 C66.49292489 16.37222917 58.35017037 16.32285322 50.20740378 16.27259517 C33.47165792 16.16954503 16.73586927 16.08058901 0 16 C0 10.72 0 5.44 0 0 Z " fill="#000000" transform="translate(256,80)"/>
<path d="M0 0 C26.4 0 52.8 0 80 0 C80 10.56 80 21.12 80 32 C89.75243471 31.8033465 89.75243471 31.8033465 99.50341797 31.54956055 C107.6286647 31.46732121 114.24117771 32.01222004 121 37 C123.25390625 39.3515625 123.25390625 39.3515625 124.5625 41.625 C125.01753906 42.38039063 125.47257813 43.13578125 125.94140625 43.9140625 C129.53442419 50.99403144 128 54.05975178 128 64 C69.92 64 11.84 64 -48 64 C-48 45.16091954 -48 45.16091954 -43 39 C-36.89875689 33.78562761 -31.94430593 31.86961508 -23.92578125 31.90234375 C-22.67450439 31.90484131 -21.42322754 31.90733887 -20.1340332 31.90991211 C-17.74737427 31.92356812 -17.74737427 31.92356812 -15.3125 31.9375 C-10.259375 31.958125 -5.20625 31.97875 0 32 C0 21.44 0 10.88 0 0 Z " fill="#000000" transform="translate(304,432)"/>
<path d="M0 0 C12.375 3.375 12.375 3.375 17.57299805 4.99291992 C18.73337082 5.35306686 19.89374359 5.71321381 21.08927917 6.08427429 C22.30118423 6.46251846 23.51308929 6.84076263 24.76171875 7.23046875 C26.04631969 7.62991203 27.3309734 8.02918561 28.61567688 8.42829895 C31.95827885 9.4672203 35.30017029 10.50840843 38.64190674 11.55010986 C42.0674762 12.6174893 45.49372959 13.68266872 48.91992188 14.74804688 C55.613943 16.82990809 62.30721417 18.91417062 69 21 C69 21.66 69 22.32 69 23 C53.79050731 29.86159184 38.50916791 36.54516717 23.16040039 43.08889771 C21.34282535 43.86395013 19.52576857 44.64021901 17.70922852 45.41769409 C15.13979405 46.5166659 12.56830524 47.61067154 9.99609375 48.703125 C8.8275309 49.2038427 8.8275309 49.2038427 7.63536072 49.7146759 C2.22947703 52 2.22947703 52 0 52 C0 34.84 0 17.68 0 0 Z " fill="#000000" transform="translate(16,61)"/>
<path d="M0 0 C0 17.16 0 34.32 0 52 C-10.12579794 48.62473402 -10.12579794 48.62473402 -14.34521484 46.81103516 C-15.2900473 46.40696442 -16.23487976 46.00289368 -17.20834351 45.58657837 C-18.19919952 45.15839813 -19.19005554 44.7302179 -20.2109375 44.2890625 C-21.7841124 43.6140419 -21.7841124 43.6140419 -23.3890686 42.92538452 C-25.59669805 41.97734609 -27.8035858 41.02757885 -30.00976562 40.07617188 C-33.356481 38.63298585 -36.70536014 37.19492477 -40.0546875 35.7578125 C-42.21106623 34.83102862 -44.36732033 33.90395472 -46.5234375 32.9765625 C-48.00364883 32.34036484 -48.00364883 32.34036484 -49.51376343 31.6913147 C-56.0459118 28.87297054 -62.53379103 25.96643384 -69 23 C-68 21 -68 21 -66.22329712 20.23040771 C-65.44787567 19.98647278 -64.67245422 19.74253784 -63.87353516 19.49121094 C-62.99396149 19.21041687 -62.11438782 18.9296228 -61.2081604 18.64031982 C-60.24485809 18.34135803 -59.28155579 18.04239624 -58.2890625 17.734375 C-56.79395645 17.26055389 -56.79395645 17.26055389 -55.26864624 16.77716064 C-52.05630486 15.76095346 -48.84075554 14.7553447 -45.625 13.75 C-43.52582173 13.08793653 -41.42686074 12.42518371 -39.328125 11.76171875 C-35.2037507 10.45903017 -31.07770322 9.16186467 -26.95019531 7.86914062 C-23.06043645 6.64998371 -19.17448073 5.4198471 -15.29199219 4.17773438 C-14.41014252 3.89633606 -13.52829285 3.61493774 -12.61972046 3.32501221 C-10.971869 2.79862541 -9.32471257 2.27005612 -7.67837524 1.73895264 C-2.22317255 0 -2.22317255 0 0 0 Z " fill="#000000" transform="translate(240,61)"/>
</svg>
