<?xml version="1.0" encoding="UTF-8"?>
<svg version="1.1" xmlns="http://www.w3.org/2000/svg" width="500" height="500">
<path d="M0 0 C8.11141293 4.27493384 11.03738735 12.85743859 14.57421875 20.921875 C16.91078177 25.96629051 19.58488752 30.82745325 22.23046875 35.71484375 C23.5297748 38.1270212 24.79729254 40.5390755 26 43 C35.11116285 35.94255211 35.11116285 35.94255211 42 27 C42.66 27 43.32 27 44 27 C44.25136719 26.42765625 44.50273437 25.8553125 44.76171875 25.265625 C46.16658048 22.69521552 47.77587589 20.85282413 49.8125 18.75 C50.81216797 17.69039062 50.81216797 17.69039062 51.83203125 16.609375 C54 15 54 15 56.51171875 14.453125 C60.12119415 15.2464163 61.00910264 16.9509885 63 20 C63.50120544 23.05737305 63.50120544 23.05737305 63.50170898 26.51171875 C63.51108994 27.81077148 63.52047089 29.10982422 63.53013611 30.44824219 C63.5196486 31.86133477 63.50827836 33.27442103 63.49609375 34.6875 C63.49624895 36.15136792 63.49774134 37.61523624 63.50050354 39.07910156 C63.50188705 42.14911044 63.48935041 45.21865196 63.46655273 48.28857422 C63.43836872 52.18736232 63.44085083 56.08536264 63.45364285 59.98420715 C63.46066993 63.01123542 63.45272838 66.03808817 63.44038582 69.06509399 C63.43592483 70.50012534 63.43548667 71.93517593 63.43945122 73.37020874 C63.45304244 82.62950749 62.38249797 91.03874837 60 100 C59.7375071 101.32801636 59.7375071 101.32801636 59.4697113 102.68286133 C58.0253217 109.80819763 54.56696112 117.33066896 50 123 C49.34 123 48.68 123 48 123 C48 123.66 48 124.32 48 125 C47.34 125 46.68 125 46 125 C45.73832031 125.59167969 45.47664062 126.18335938 45.20703125 126.79296875 C40.84893388 134.76165811 31.00635547 139.57250048 23 143 C17.42398879 144.60366989 11.82452228 146 6 146 C6.33 170.75 6.66 195.5 7 221 C8.98 217.37 10.96 213.74 13 210 C15.25 206.3125 15.25 206.3125 17 204 C17.66 204 18.32 204 19 204 C19.144375 203.38125 19.28875 202.7625 19.4375 202.125 C20 200 20 200 21 198 C21.66 198 22.32 198 23 198 C23.2784375 197.40960938 23.556875 196.81921875 23.84375 196.2109375 C28.79818094 186.73726212 37.87554713 181.667051 47.796875 178.54296875 C66.81478543 173.85593054 84.28602896 177.64593256 101 187 C102 188 102 188 102.1875 191.3125 C102.01798052 194.64638318 101.75557129 196.25691987 100 199 C99.34 199 98.68 199 98 199 C97.773125 199.70125 97.54625 200.4025 97.3125 201.125 C95.66158712 204.74128535 93.7091165 207.08769976 91 210 C90.34 210 89.68 210 89 210 C89 210.66 89 211.32 89 212 C88.34 212 87.68 212 87 212 C87 212.66 87 213.32 87 214 C85.05859375 215.5859375 85.05859375 215.5859375 82.4375 217.375 C81.59058594 217.96023438 80.74367188 218.54546875 79.87109375 219.1484375 C73.51184445 223.2495044 68.01162588 225.89835004 60.6875 227.75 C59.84227783 227.965354 58.99705566 228.18070801 58.1262207 228.40258789 C52.2863594 229.82525535 47.01005563 230.73108102 41 230 C39.23462891 229.80470703 39.23462891 229.80470703 37.43359375 229.60546875 C27.27438171 228.32384508 27.27438171 228.32384508 23 226 C19.67291743 225.08115592 19.67291743 225.08115592 16 226 C10.64953179 230.37325792 7.17343872 235.14213805 6 242 C5.73012365 246.67722675 5.76744506 251.34371688 5.8046875 256.02734375 C5.80842319 257.38497203 5.81126753 258.74260303 5.81326294 260.10023499 C5.82085569 263.65287882 5.84046603 267.20535603 5.8626709 270.75793457 C5.88322387 274.3913345 5.89228476 278.02476167 5.90234375 281.65820312 C5.92371661 288.77220309 5.95779913 295.8860906 6 303 C7.12308563 302.99555878 8.24617126 302.99111755 9.40328979 302.98654175 C19.96884653 302.94606123 30.53438761 302.9160472 41.1000042 302.89637566 C46.5323598 302.88592248 51.96465298 302.87173539 57.39697266 302.84912109 C62.63594301 302.8274473 67.87485319 302.81544294 73.1138649 302.81024551 C75.11622185 302.80653991 77.11857538 302.79930417 79.12090683 302.78853989 C81.91775473 302.77409753 84.7143515 302.772019 87.51123047 302.77294922 C88.34560638 302.76575867 89.1799823 302.75856812 90.03964233 302.75115967 C95.77189568 302.77189568 95.77189568 302.77189568 98 305 C97.44444444 309.55555556 97.44444444 309.55555556 96 311 C93.52108029 311.09771507 91.07005223 311.12995957 88.59068298 311.12025452 C87.41333827 311.12153615 87.41333827 311.12153615 86.21220881 311.12284368 C83.56194141 311.12450087 80.91173625 311.11897324 78.26147461 311.11352539 C76.36972556 311.11324354 74.4779764 311.1134012 72.58622742 311.1139679 C67.4335489 311.11425597 62.28089345 311.10835765 57.12822032 311.10139394 C51.74967104 311.09516204 46.3711213 311.09455673 40.99256897 311.09336853 C30.79988176 311.09025473 20.60720521 311.08204069 10.41452271 311.07201904 C-1.18624568 311.06085941 -12.78701457 311.05534783 -24.38778698 311.05032361 C-48.25853058 311.03985811 -72.12926469 311.02225773 -96 311 C-96.66 309.02 -97.32 307.04 -98 305 C-94.95208239 301.95208239 -91.4187659 302.69151202 -87.32763672 302.68115234 C-86.43001617 302.67110672 -85.53239563 302.6610611 -84.60757446 302.65071106 C-81.63161884 302.61974525 -78.65575371 302.60280683 -75.6796875 302.5859375 C-73.61987522 302.56723662 -71.56007069 302.54766403 -69.50027466 302.5272522 C-64.07188473 302.47581087 -58.64346992 302.4362495 -53.21496582 302.39910889 C-47.6784036 302.3591443 -42.1419459 302.30801764 -36.60546875 302.2578125 C-25.7370451 302.16091113 -14.86857874 302.07758315 -4 302 C-3.67 296.06 -3.34 290.12 -3 284 C-7.62116488 283.38645674 -7.62116488 283.38645674 -12.24243164 282.77368164 C-13.50622631 282.60553138 -14.76979734 282.43569604 -16.03320312 282.26464844 C-17.92879862 282.00958072 -19.82571148 281.76436253 -21.72265625 281.51953125 C-24.4433824 281.08823616 -26.79356574 280.5448214 -29.375 279.625 C-31.73228996 278.79349019 -34.07883579 277.97580041 -36.46875 277.2421875 C-37.2628125 276.99726563 -38.056875 276.75234375 -38.875 276.5 C-39.59429687 276.2834375 -40.31359375 276.066875 -41.0546875 275.84375 C-43.25176139 274.89080229 -44.38119896 273.74054931 -46 272 C-46.845625 271.46375 -47.69125 270.9275 -48.5625 270.375 C-53.91839833 266.89907609 -60.94908036 262.15275892 -63 256 C-63.66 256 -64.32 256 -65 256 C-75.02217302 244.1349589 -81.51318237 227.89454105 -83.4375 212.5 C-83 209 -83 209 -80.5625 206.625 C-76.22408815 204.64607529 -72.71871784 204.1875484 -68 204 C-66.79923828 203.90525391 -66.79923828 203.90525391 -65.57421875 203.80859375 C-53.38856829 203.23536892 -40.37882085 206.64524829 -30 213 C-29.14148438 213.52207031 -28.28296875 214.04414063 -27.3984375 214.58203125 C-22.85190098 217.47464195 -22.85190098 217.47464195 -21 219 C-21 219.66 -21 220.32 -21 221 C-20.40960938 221.26683594 -19.81921875 221.53367187 -19.2109375 221.80859375 C-13.81720741 224.71510908 -10.0669965 229.69442368 -6.7734375 234.74609375 C-6.24927246 235.54587646 -5.72510742 236.34565918 -5.18505859 237.16967773 C-4.79398926 237.77368408 -4.40291992 238.37769043 -4 239 C-4.00222061 238.14239075 -4.00444122 237.28478149 -4.00672913 236.40118408 C-4.02696327 228.22523986 -4.04209002 220.04930434 -4.05181217 211.87334061 C-4.05697879 207.67238527 -4.06395977 203.47145102 -4.07543945 199.27050781 C-4.17053406 163.5695893 -4.17053406 163.5695893 -3 147 C-4.60343262 146.70125977 -4.60343262 146.70125977 -6.23925781 146.39648438 C-20.50750739 143.70659884 -33.36016839 139.40339091 -44 129 C-44 128.34 -44 127.68 -44 127 C-44.99 126.67 -45.98 126.34 -47 126 C-53.1777059 118.67099437 -56.48394809 111.16561767 -59 102 C-59.33 101.34 -59.66 100.68 -60 100 C-59.505 98.515 -59.505 98.515 -59 97 C-59.99 96.505 -59.99 96.505 -61 96 C-61.06945186 85.88191941 -61.12278674 75.76389535 -61.15543652 65.64562511 C-61.17110528 60.94750244 -61.19236555 56.24954261 -61.22631836 51.55151367 C-61.25886877 47.01926888 -61.27684389 42.48718091 -61.28463173 37.95482826 C-61.29018302 36.22401777 -61.30102313 34.49321604 -61.31719017 32.76247215 C-61.33890737 30.34170224 -61.34196937 27.92158377 -61.34057617 25.50073242 C-61.351362 24.78216064 -61.36214783 24.06358887 -61.3732605 23.32324219 C-61.35509268 20.41379578 -61.34062396 18.47745165 -59.62084961 16.06684875 C-58 15 -58 15 -55.72583008 14.4296875 C-51.48369137 15.31725006 -49.31977611 18.06292104 -46.38671875 21.125 C-45.77230423 21.74648926 -45.15788971 22.36797852 -44.52485657 23.00830078 C-42.56702151 24.99410247 -40.62728987 26.99658291 -38.6875 29 C-37.36248498 30.35009468 -36.03632587 31.69906753 -34.70898438 33.046875 C-31.45924195 36.35171715 -28.22562835 39.67162449 -25 43 C-18.06415232 31.53091854 -12.69997359 19.11577552 -7 7 C-6.34 7 -5.68 7 -5 7 C-4.731875 6.21625 -4.46375 5.4325 -4.1875 4.625 C-3 2 -3 2 0 0 Z M0 17 C-1.66253472 20.00743069 -3.30718314 23.02423321 -4.94189453 26.046875 C-5.70867588 27.46225359 -6.47824276 28.87612429 -7.24951172 30.2890625 C-8.61279394 32.79213806 -9.96346192 35.30172311 -11.3125 37.8125 C-11.75706543 38.62436768 -12.20163086 39.43623535 -12.65966797 40.27270508 C-13.28639404 41.44675903 -13.28639404 41.44675903 -13.92578125 42.64453125 C-14.30130127 43.33909424 -14.67682129 44.03365723 -15.0637207 44.74926758 C-16.24605832 47.59150238 -16.85169664 49.91453603 -17 53 C-15.60465653 55.35527717 -15.60465653 55.35527717 -13.37890625 57.3046875 C-12.60869141 58.05234375 -11.83847656 58.8 -11.04492188 59.5703125 C-10.22572266 60.33085937 -9.40652344 61.09140625 -8.5625 61.875 C-7.74716797 62.65875 -6.93183594 63.4425 -6.09179688 64.25 C-4.07598164 66.18329649 -2.04570882 68.09844442 0 70 C4.24575187 66.42422423 8.36930468 62.78753284 12.3125 58.875 C13.15425781 58.04742187 13.99601562 57.21984375 14.86328125 56.3671875 C16.82561029 54.19319957 18.01332818 52.72527536 19 50 C18.47726736 48.03560896 18.47726736 48.03560896 17.25390625 46.1640625 C16.83173828 45.43566162 16.40957031 44.70726074 15.97460938 43.95678711 C15.27561523 42.80255249 15.27561523 42.80255249 14.5625 41.625 C13.62363858 40.01587402 12.68746787 38.40517528 11.75390625 36.79296875 C11.2861377 35.99036621 10.81836914 35.18776367 10.33642578 34.36083984 C7.78947241 29.86156343 5.59805396 25.19255073 3.375 20.52734375 C2.25079973 17.88708585 2.25079973 17.88708585 0 17 Z M-51 31 C-51.09332867 38.98960079 -51.16407939 46.97896786 -51.20724869 54.96898174 C-51.22798433 58.68044696 -51.25603909 62.39153498 -51.30175781 66.1027832 C-51.3457245 69.69493544 -51.36924205 73.28672854 -51.37950897 76.87912941 C-51.39032566 78.89347318 -51.4214672 80.90767563 -51.45318604 82.92179871 C-51.45678433 97.93224596 -46.88711213 111.1257884 -36.75390625 122.34375 C-24.58599638 133.83415932 -10.38642084 137.7457298 6.01171875 137.32421875 C13.55983438 136.89450378 20.77710766 134.27193149 27 130 C27 129.34 27 128.68 27 128 C27.7425 127.896875 28.485 127.79375 29.25 127.6875 C32.1973519 126.95066203 33.78383074 126.05200858 36 124 C36 123.34 36 122.68 36 122 C36.66 122 37.32 122 38 122 C38 121.34 38 120.68 38 120 C38.66 120 39.32 120 40 120 C41.93136648 117.51777753 41.93136648 117.51777753 43.875 114.3125 C44.55304688 113.25675781 45.23109375 112.20101562 45.9296875 111.11328125 C51.4478693 101.00017734 52.57527942 90.72085236 52.390625 79.38671875 C52.38313905 78.03767243 52.3774573 76.68861504 52.37347412 75.33955383 C52.35840213 71.83607483 52.31928765 68.33328856 52.2746582 64.83007812 C52.23330005 61.23642338 52.21537778 57.64265366 52.1953125 54.04882812 C52.15276885 47.03227343 52.08475055 40.01618259 52 33 C51.34 33 50.68 33 50 33 C50 33.66 50 34.32 50 35 C49.34 35 48.68 35 48 35 C48 35.66 48 36.32 48 37 C47.41734375 37.25668457 46.8346875 37.51336914 46.234375 37.77783203 C43.79567702 39.11176146 42.19621511 40.5758009 40.25 42.5546875 C39.5590625 43.25207031 38.868125 43.94945312 38.15625 44.66796875 C37.08890625 45.76044922 37.08890625 45.76044922 36 46.875 C35.2884375 47.59558594 34.576875 48.31617188 33.84375 49.05859375 C32.51330936 50.40640954 31.18494043 51.75627592 29.859375 53.10888672 C28.52099258 54.47011443 27.15238623 55.80186189 25.765625 57.11376953 C23.77220619 58.8127439 23.77220619 58.8127439 24 61 C23.34 61 22.68 61 22 61 C22 61.66 22 62.32 22 63 C21.34 63 20.68 63 20 63 C20 63.66 20 64.32 20 65 C19.34 65 18.68 65 18 65 C18 65.66 18 66.32 18 67 C17.34 67 16.68 67 16 67 C16 67.66 16 68.32 16 69 C15.360625 69.268125 14.72125 69.53625 14.0625 69.8125 C11.66868314 70.88667752 11.66868314 70.88667752 11 74 C10.34 74 9.68 74 9 74 C9 74.66 9 75.32 9 76 C8.34 76 7.68 76 7 76 C7 76.66 7 77.32 7 78 C6.34 78 5.68 78 5 78 C5 78.66 5 79.32 5 80 C2.31640625 80.7578125 2.31640625 80.7578125 -1 81 C-3.59765625 79.3046875 -3.59765625 79.3046875 -6.0625 76.875 C-6.92875 76.03582031 -7.795 75.19664062 -8.6875 74.33203125 C-9.450625 73.56246094 -10.21375 72.79289062 -11 72 C-12.2684375 70.7934375 -12.2684375 70.7934375 -13.5625 69.5625 C-24.43243243 58.13513514 -24.43243243 58.13513514 -26 55 C-26.66 55 -27.32 55 -28 55 C-28 54.34 -28 53.68 -28 53 C-29.58737399 51.43351142 -29.58737399 51.43351142 -31.625 49.8125 C-35.08787267 46.8899337 -37.97510908 43.84169098 -40.7734375 40.28515625 C-41.17820312 39.86105469 -41.58296875 39.43695313 -42 39 C-42.66 39 -43.32 39 -44 39 C-44 38.34 -44 37.68 -44 37 C-44.66 37 -45.32 37 -46 37 C-46 36.34 -46 35.68 -46 35 C-46.66 35 -47.32 35 -48 35 C-48 34.34 -48 33.68 -48 33 C-48.66 33 -49.32 33 -50 33 C-50.33 32.34 -50.66 31.68 -51 31 Z M35 195 C35 195.66 35 196.32 35 197 C34.34 197 33.68 197 33 197 C33 197.66 33 198.32 33 199 C32.34 199 31.68 199 31 199 C31 199.66 31 200.32 31 201 C30.34 201 29.68 201 29 201 C26.03764305 204.63323689 26.03764305 204.63323689 25 209 C29.42258626 208.3859824 32.76133264 206.70899029 36.6875 204.625 C44.13141691 200.78477553 51.43956301 197.32417603 60 198 C59.67 200.31 59.34 202.62 59 205 C58.15953125 205.10957031 57.3190625 205.21914063 56.453125 205.33203125 C52.69214252 206.05955162 49.28305195 207.2512445 45.75 208.6875 C45.09829834 208.95006592 44.44659668 209.21263184 43.77514648 209.4831543 C38.21866268 211.78609407 32.89024099 214.46752003 28 218 C28 218.33 28 218.66 28 219 C43.46932018 222.91097937 58.45567147 221.56029093 72.39111328 213.59741211 C75.35816514 211.82503933 78.21187824 210.04857741 81 208 C81 207.34 81 206.68 81 206 C81.66 206 82.32 206 83 206 C83 205.34 83 204.68 83 204 C83.66 204 84.32 204 85 204 C86.43581474 202.38542921 87.80144783 200.70780925 89.125 199 C89.84945312 198.071875 90.57390625 197.14375 91.3203125 196.1875 C91.87460937 195.465625 92.42890625 194.74375 93 194 C87.06930208 187.00952101 75.13018102 185.09150646 66.4765625 184.09375 C54.94055145 183.78266656 44.43517453 188.70988365 35 195 Z M24 209 C25 211 25 211 25 211 Z M-73 213 C-73.48550515 221.5772577 -71.26877142 229.11231244 -68 237 C-67.34 237 -66.68 237 -66 237 C-65.896875 237.53625 -65.79375 238.0725 -65.6875 238.625 C-64.81907303 241.62502044 -63.44379704 244.2379535 -62 247 C-61.34 247 -60.68 247 -60 247 C-60 247.66 -60 248.32 -60 249 C-59.34 249 -58.68 249 -58 249 C-57.72800781 249.59296875 -57.45601562 250.1859375 -57.17578125 250.796875 C-51.1082203 262.16599252 -36.78130609 268.24256902 -25.1796875 272.10546875 C-21.40216802 273.16818615 -17.90599842 273.70520767 -14 274 C-13.01 274.33 -12.02 274.66 -11 275 C-13.47121941 269.38359226 -17.35554416 264.00384124 -22 260 C-22.66 260 -23.32 260 -24 260 C-24 259.34 -24 258.68 -24 258 C-24.66 258 -25.32 258 -26 258 C-26 257.34 -26 256.68 -26 256 C-26.66 256 -27.32 256 -28 256 C-28.3403125 255.13375 -28.3403125 255.13375 -28.6875 254.25 C-30.34848222 251.40260191 -32.31524561 249.87932807 -35 248 C-35.66 248 -36.32 248 -37 248 C-37 247.34 -37 246.68 -37 246 C-37.66 246 -38.32 246 -39 246 C-39.38063221 243.6739143 -39.71269945 241.33944736 -40 239 C-39 238 -39 238 -36.75 237.625 C-32.90482073 238.14934263 -31.57265537 240.21875095 -29 243 C-28.34 243 -27.68 243 -27 243 C-27 243.66 -27 244.32 -27 245 C-26.34 245 -25.68 245 -25 245 C-25 245.66 -25 246.32 -25 247 C-24.34 247 -23.68 247 -23 247 C-23 247.66 -23 248.32 -23 249 C-21.44616853 250.53237551 -21.44616853 250.53237551 -19.4375 252.125 C-15.71662834 255.26531012 -12.60998083 258.62477418 -9.54296875 262.3984375 C-7.9859601 264.26234632 -7.9859601 264.26234632 -5 265 C-5.65452479 260.52741393 -6.66017677 256.31720819 -8 252 C-8.19335938 251.3709375 -8.38671875 250.741875 -8.5859375 250.09375 C-11.24124781 242.22153592 -15.84936981 235.56485589 -22 230 C-22.50402344 229.48050781 -23.00804687 228.96101563 -23.52734375 228.42578125 C-34.19829477 218.03503025 -49.77208533 212.08174762 -64.5625 211.75 C-67.47239493 211.96162872 -70.17255133 212.29313783 -73 213 Z " fill="#1C1C1C" transform="translate(251,111)"/>
<path d="M0 0 C1.60247337 -0.01485695 1.60247337 -0.01485695 3.23731995 -0.03001404 C4.98763771 -0.02326157 4.98763771 -0.02326157 6.77331543 -0.01637268 C8.00617783 -0.02323593 9.23904022 -0.03009918 10.50926208 -0.03717041 C13.88747138 -0.05233692 17.26512898 -0.05393237 20.64333153 -0.04822803 C23.4640218 -0.04513771 26.28466209 -0.05122676 29.10534525 -0.05726677 C35.75919662 -0.07131254 42.41291959 -0.06974994 49.06677246 -0.05836487 C55.93108556 -0.04687924 62.79500816 -0.06096631 69.65926981 -0.08776134 C75.55408432 -0.10991045 81.44877618 -0.11655767 87.34362936 -0.11068493 C90.86383002 -0.10731272 94.38378026 -0.10974775 97.90394592 -0.12693596 C101.82800645 -0.14526036 105.75158566 -0.13122607 109.67565918 -0.11402893 C110.84253769 -0.1236969 112.0094162 -0.13336487 113.21165466 -0.14332581 C114.81412804 -0.1285746 114.81412804 -0.1285746 116.44897461 -0.11352539 C117.37663383 -0.11331611 118.30429306 -0.11310682 119.26006317 -0.1128912 C122.4901343 0.54319747 123.69199606 1.84678904 125.7244873 4.38768005 C126.21032715 6.90550232 126.21032715 6.90550232 126.1854248 9.7040863 C126.18155762 10.71535583 126.17769043 11.72662537 126.17370605 12.76853943 C126.14921387 13.81848083 126.12472168 14.86842224 126.0994873 15.95018005 C126.09755371 17.53089294 126.09755371 17.53089294 126.09558105 19.14353943 C126.00572716 26.96582027 126.00572716 26.96582027 123.7244873 30.38768005 C120.5994873 30.57518005 120.5994873 30.57518005 117.7244873 30.38768005 C113.25234557 23.8658067 114.7244873 20.47994264 114.7244873 11.38768005 C76.7744873 11.05768005 38.8244873 10.72768005 -0.2755127 10.38768005 C0.0544873 47.01768005 0.3844873 83.64768005 0.7244873 121.38768005 C26.25921988 121.67697877 26.25921988 121.67697877 51.79406738 121.95579529 C56.73168945 122.01475525 56.73168945 122.01475525 59.04289246 122.0435791 C60.65774051 122.06280537 62.27261194 122.08012628 63.88749695 122.09594727 C66.33299239 122.12027507 68.77834562 122.15063998 71.22375488 122.18235779 C71.94369283 122.18812804 72.66363077 122.1938983 73.40538502 122.19984341 C76.44628621 122.24494062 78.81595061 122.41816782 81.7244873 123.38768005 C82.8494873 129.13768005 82.8494873 129.13768005 81.7244873 131.38768005 C70.15488694 131.43394796 58.58530845 131.46952097 47.01563454 131.4913044 C41.64381272 131.50175746 36.27205403 131.51594435 30.90026855 131.53855896 C25.71965283 131.56023316 20.53909795 131.5722372 15.3584404 131.57743454 C13.37841203 131.58114007 11.39838713 131.58837568 9.41838455 131.59914017 C6.65266885 131.61358307 3.88720709 131.61566103 1.12145996 131.61473083 C0.29643478 131.62192139 -0.52859039 131.62911194 -1.37861633 131.63652039 C-7.04740837 131.61578438 -7.04740837 131.61578438 -9.2755127 129.38768005 C-9.5327816 127.18217564 -9.5327816 127.18217564 -9.54293823 124.38391113 C-9.5514682 123.32531387 -9.55999817 122.26671661 -9.56878662 121.17604065 C-9.56742706 119.4266066 -9.56742706 119.4266066 -9.56604004 117.64183044 C-9.57275726 116.41740738 -9.57947449 115.19298431 -9.58639526 113.93145752 C-9.60217118 110.56776984 -9.60875218 107.204329 -9.61002684 103.84062123 C-9.61192378 101.03485708 -9.6192789 98.22911673 -9.62637103 95.42336172 C-9.64266668 88.80509167 -9.64753889 82.18687606 -9.64611816 75.56858826 C-9.64491623 68.73612255 -9.6660253 61.90397248 -9.69760549 55.07158667 C-9.72373555 49.20996169 -9.73448685 43.34844001 -9.73320735 37.48675722 C-9.73269676 33.98386737 -9.73843246 30.48125794 -9.75956345 26.97842598 C-9.78247839 23.07313259 -9.77344494 19.16827397 -9.76135254 15.26292419 C-9.77259155 14.09865906 -9.78383057 12.93439392 -9.79541016 11.73484802 C-9.78702118 10.67343094 -9.7786322 9.61201385 -9.76998901 8.51843262 C-9.77107855 7.59462831 -9.77216808 6.67082399 -9.77329063 5.71902561 C-9.2755127 3.38768005 -9.2755127 3.38768005 -7.57432747 1.59123802 C-4.8401142 0.15972461 -3.07966099 0.00806681 0 0 Z " fill="#1B1B1B" transform="translate(96.2755126953125,92.61231994628906)"/>
<path d="M0 0 C2.05545608 3.08318411 2.24980031 3.70388796 2.24723816 7.18165588 C2.25143265 8.03271912 2.25562714 8.88378235 2.25994873 9.76063538 C2.25151947 11.15638039 2.25151947 11.15638039 2.24291992 12.58032227 C2.24481827 13.56265839 2.24671661 14.54499451 2.24867249 15.55709839 C2.25238292 18.8102817 2.24167272 22.06324271 2.23046875 25.31640625 C2.22927706 27.57177199 2.22882376 29.82713823 2.2290802 32.08250427 C2.2275149 36.81113793 2.21922118 41.53969592 2.20581055 46.26831055 C2.18881096 52.3405209 2.18499646 58.41264813 2.18575573 64.48487949 C2.18548429 69.14215392 2.18000746 73.79941004 2.17275429 78.45667839 C2.16956426 80.69626667 2.16759944 82.93585703 2.16686058 85.17544746 C2.16470111 88.30002529 2.15596564 91.42451356 2.14526367 94.54907227 C2.14571686 95.48159317 2.14617004 96.41411407 2.14663696 97.37489319 C2.14237198 98.2231366 2.13810699 99.07138 2.13371277 99.94532776 C2.13203692 100.68439645 2.13036108 101.42346514 2.12863445 102.18492985 C2 104 2 104 1 106 C-1.875 106.125 -1.875 106.125 -5 106 C-7.36421861 103.63578139 -7.2516889 103.19482392 -7.26069641 99.99002075 C-7.26778122 99.15163666 -7.27486603 98.31325256 -7.28216553 97.44946289 C-7.27968811 96.52786377 -7.27721069 95.60626465 -7.2746582 94.65673828 C-7.27976913 93.68751434 -7.28488007 92.71829041 -7.29014587 91.71969604 C-7.30409043 88.50317272 -7.30308129 85.28686253 -7.30078125 82.0703125 C-7.30466585 79.84072794 -7.30900002 77.61114413 -7.31376648 75.38156128 C-7.32123941 70.70242924 -7.32092989 66.02337264 -7.31567383 61.34423828 C-7.30988145 55.34272023 -7.3267996 49.34151101 -7.3500185 43.34004402 C-7.36473927 38.73328846 -7.36562973 34.12660752 -7.36250877 29.51983261 C-7.36302294 27.30700952 -7.36827845 25.09418235 -7.37832069 22.88138199 C-7.39063389 19.78806671 -7.38392368 16.69535612 -7.37231445 13.60205078 C-7.37995819 12.68450012 -7.38760193 11.76694946 -7.39547729 10.82159424 C-7.36550838 7.21547115 -7.32729201 4.66835897 -5.72673035 1.39987183 C-4 0 -4 0 0 0 Z " fill="#323232" transform="translate(418,199)"/>
<path d="M0 0 C0 0.66 0 1.32 0 2 C0.66 2 1.32 2 2 2 C2.83365879 7.8066163 3.1484827 13.42841055 3.14526367 19.29003906 C3.14862228 20.1821106 3.1519809 21.07418213 3.15544128 21.99328613 C3.16487659 24.91741355 3.16689005 27.84148335 3.16796875 30.765625 C3.1711844 32.80727156 3.1745487 34.84891789 3.17805481 36.89056396 C3.18402596 41.15719131 3.18589657 45.42379846 3.18530273 49.69042969 C3.18520074 55.16035305 3.19889985 60.63014767 3.21607494 66.10004044 C3.22717958 70.31045124 3.22922248 74.52083063 3.22869301 78.73125458 C3.22987364 80.74869992 3.23430004 82.76614607 3.24202538 84.78357697 C3.25180248 87.59832403 3.24895721 90.41278762 3.24291992 93.22753906 C3.24853943 94.06085754 3.25415894 94.89417603 3.25994873 95.75274658 C3.21964299 103.13300327 3.21964299 103.13300327 1 106 C-2 107 -2 107 -4.1875 106.0625 C-4.785625 105.711875 -5.38375 105.36125 -6 105 C-6.02314154 91.88305122 -6.04092437 78.76610728 -6.05181217 65.64914227 C-6.05703702 59.55881213 -6.06412749 53.46849594 -6.07543945 47.37817383 C-6.08628242 41.50378596 -6.09227985 35.62941152 -6.09487724 29.75501442 C-6.09672894 27.51066692 -6.10034468 25.26632018 -6.10573006 23.02197838 C-6.11295913 19.88532277 -6.11399014 16.7487231 -6.11352539 13.61206055 C-6.11712067 12.67842178 -6.12071594 11.74478302 -6.12442017 10.78285217 C-6.1230455 9.92889862 -6.12167084 9.07494507 -6.12025452 8.19511414 C-6.12117631 7.45307078 -6.1220981 6.71102743 -6.12304783 5.94649792 C-6 4 -6 4 -5 1 C-3 0 -3 0 0 0 Z " fill="#292929" transform="translate(398,199)"/>
<path d="M0 0 C0.639375 0.2475 1.27875 0.495 1.9375 0.75 C2.8499895 3.4874685 3.06303375 5.07843162 3.06448364 7.89369202 C3.06730347 8.73634109 3.07012329 9.57899017 3.07302856 10.44717407 C3.07100433 11.36832001 3.0689801 12.28946594 3.06689453 13.23852539 C3.06864685 14.21110794 3.07039917 15.18369049 3.07220459 16.18574524 C3.07661245 19.40640029 3.07368906 22.62700062 3.0703125 25.84765625 C3.07098579 28.08060212 3.07195603 30.31354791 3.07321167 32.54649353 C3.07468715 37.22802426 3.07253866 41.90953593 3.06787109 46.59106445 C3.06217061 52.60273536 3.06545579 58.61436165 3.07144356 64.62603092 C3.07505038 69.23697752 3.07391008 73.84791348 3.07131577 78.4588604 C3.070647 80.67612145 3.07147316 82.89338345 3.07379532 85.11064339 C3.07632416 88.20407817 3.07247808 91.29743983 3.06689453 94.39086914 C3.06891876 95.31403931 3.07094299 96.23720947 3.07302856 97.18835449 C3.07020874 98.02818375 3.06738892 98.868013 3.06448364 99.73329163 C3.06410662 100.46498597 3.06372959 101.19668032 3.06334114 101.95054722 C2.9375 103.75 2.9375 103.75 1.9375 105.75 C-0.0425 105.75 -2.0225 105.75 -4.0625 105.75 C-5.27417677 96.27136667 -5.20803276 86.82914788 -5.1953125 77.29296875 C-5.19598764 75.49994392 -5.19695941 73.70691918 -5.19821167 71.91389465 C-5.1996799 68.16776655 -5.19756308 64.42166241 -5.19287109 60.67553711 C-5.1871868 55.90833969 -5.19045017 51.14119875 -5.19644356 46.37400341 C-5.20008348 42.6736459 -5.19889472 38.97330143 -5.19631577 35.2729435 C-5.19565531 33.51693019 -5.19644357 31.76091565 -5.19879532 30.00490379 C-5.22262587 7.20679449 -5.22262587 7.20679449 -4.0625 0.75 C-2.0625 -0.25 -2.0625 -0.25 0 0 Z " fill="#121212" transform="translate(377.0625,199.25)"/>
<path d="M0 0 C1.875 0.75 1.875 0.75 2.875 1.75 C2.98613079 4.47275257 3.03239498 7.1703762 3.03613281 9.89404297 C3.04109772 10.74768433 3.04606262 11.60132568 3.05117798 12.48083496 C3.06583889 15.31796053 3.07260815 18.1550302 3.078125 20.9921875 C3.08387327 22.95655317 3.08963104 24.92091881 3.09539795 26.88528442 C3.10591917 31.00962588 3.11175447 35.13394778 3.11523438 39.25830078 C3.1207211 44.55034387 3.14474822 49.84212991 3.17320633 55.13409233 C3.19180482 59.19349936 3.19703682 63.25284415 3.19857025 67.31229019 C3.20160369 69.26358572 3.20965534 71.21487997 3.22275543 73.16613388 C3.23975763 75.89334563 3.23795004 78.61992513 3.23144531 81.34716797 C3.2406601 82.15767609 3.24987488 82.9681842 3.2593689 83.80325317 C3.21822451 89.29338797 3.21822451 89.29338797 1.35272217 91.775177 C0.86507385 92.09686859 0.37742554 92.41856018 -0.125 92.75 C-2.58654785 91.76745605 -2.58654785 91.76745605 -5.125 89.75 C-5.62796375 86.80127499 -5.78929987 84.42284771 -5.74023438 81.47070312 C-5.74578339 80.62652328 -5.7513324 79.78234344 -5.75704956 78.9125824 C-5.76887398 76.11823003 -5.74454325 73.32548927 -5.71875 70.53125 C-5.71703959 68.59216384 -5.71710387 66.65307537 -5.71887207 64.71398926 C-5.71721724 60.64845687 -5.69848936 56.58347485 -5.66699219 52.51806641 C-5.62731404 47.30222188 -5.62294587 42.08709869 -5.63045502 36.8711319 C-5.633522 32.86657075 -5.62141387 28.86217232 -5.60432434 24.85765076 C-5.5972842 22.93429078 -5.59417103 21.01091235 -5.59501648 19.08753967 C-5.59322224 16.40111859 -5.57187287 13.71556782 -5.54492188 11.02929688 C-5.54931778 9.83227394 -5.54931778 9.83227394 -5.55380249 8.61106873 C-5.47072641 3.25443042 -5.47072641 3.25443042 -3.73156738 0.71691895 C-2.125 -0.25 -2.125 -0.25 0 0 Z " fill="#171717" transform="translate(357.125,199.25)"/>
<path d="M0 0 C1.875 0.75 1.875 0.75 2.875 1.75 C2.97000548 4.21444057 3.00057985 6.65074626 2.98852539 9.11547852 C2.98867142 9.88615662 2.98881744 10.65683472 2.9889679 11.4508667 C2.9882686 14.01024139 2.98047545 16.5695442 2.97265625 19.12890625 C2.97079213 20.89867615 2.9693682 22.66844656 2.96836853 24.43821716 C2.96454288 29.10551366 2.9547122 33.77277923 2.94366455 38.44006348 C2.93345144 43.19897035 2.92887113 47.95788221 2.92382812 52.71679688 C2.91308997 62.06121153 2.89601299 71.4056032 2.875 80.75 C1.0625 81.8125 1.0625 81.8125 -1.125 82.75 C-2.115 82.42 -3.105 82.09 -4.125 81.75 C-5.60887882 78.78224237 -5.28099487 75.75680476 -5.28613281 72.50219727 C-5.29358017 71.3824501 -5.29358017 71.3824501 -5.30117798 70.24008179 C-5.31580809 67.76551398 -5.32260246 65.29101024 -5.328125 62.81640625 C-5.33387509 61.10009254 -5.33963284 59.38377886 -5.34539795 57.66746521 C-5.3559099 54.06696269 -5.36175151 50.46648251 -5.36523438 46.8659668 C-5.37072413 42.24765898 -5.39476147 37.62964525 -5.42320633 33.01142979 C-5.4418088 29.46586741 -5.44703699 25.92037627 -5.44857025 22.37476921 C-5.45160197 20.67187833 -5.45964793 18.96898884 -5.47275543 17.26614571 C-5.48976884 14.88626688 -5.48794772 12.50711186 -5.48144531 10.12719727 C-5.4906601 9.42111832 -5.49987488 8.71503937 -5.5093689 7.98756409 C-5.48444884 5.08295769 -5.43288957 3.188014 -3.73553467 0.77330017 C-2.125 -0.25 -2.125 -0.25 0 0 Z " fill="#090909" transform="translate(337.125,199.25)"/>
<path d="M0 0 C0.66 0 1.32 0 2 0 C2.20006108 9.98746302 2.38379794 19.9750793 2.54658794 29.96322346 C2.62269004 34.60092 2.7044531 39.23837378 2.79907227 43.87573242 C2.89014562 48.34945068 2.96645481 52.8231977 3.03244972 57.29735374 C3.06026211 59.00590626 3.093431 60.7143801 3.13199425 62.42272377 C3.1850255 64.81218497 3.21915359 67.20121464 3.2487793 69.59106445 C3.26891586 70.30028549 3.28905243 71.00950653 3.30979919 71.74021912 C3.32279968 73.71601868 3.32279968 73.71601868 3 77 C2.01 77.99 1.02 78.98 0 80 C0 53.6 0 27.2 0 0 Z " fill="#868686" transform="translate(255,257)"/>
</svg>
