<?xml version="1.0" encoding="UTF-8"?>
<svg version="1.1" xmlns="http://www.w3.org/2000/svg" width="512" height="512">
<path d="M0 0 C10.10083943 -0.0903474 20.20141077 -0.1637425 30.30256271 -0.20724869 C34.99287673 -0.22812886 39.68290013 -0.25645422 44.37304688 -0.30175781 C48.89882516 -0.34520044 53.42432381 -0.36913387 57.95029449 -0.37950897 C59.67750705 -0.38690321 61.4047042 -0.40134245 63.13179779 -0.42292023 C65.55011639 -0.45193394 67.96727771 -0.45595697 70.38574219 -0.45410156 C71.10071869 -0.46848267 71.81569519 -0.48286377 72.55233765 -0.49768066 C75.96900601 -0.46929292 77.6937943 -0.2414968 80.41339111 1.90338135 C83.26388011 5.67014986 83.13687073 8.63577429 83.11352539 13.20361328 C83.11367142 13.9451767 83.11381744 14.68674011 83.1139679 15.45077515 C83.11327 17.90731713 83.10548334 20.36378373 83.09765625 22.8203125 C83.09579163 24.5213924 83.09436794 26.22247284 83.09336853 27.92355347 C83.08954678 32.40506467 83.0797194 36.88654357 83.06866455 41.36804199 C83.05844308 45.9393673 83.05386933 50.51069781 83.04882812 55.08203125 C83.03809684 64.05470399 83.0205028 73.02734426 83 82 C77.39 82 71.78 82 66 82 C65.67 65.5 65.34 49 65 32 C55.24921777 42.36026871 55.24921777 42.36026871 45.8203125 52.9296875 C41.82113865 57.47810412 37.66233292 61.88594391 33.54638672 66.32861328 C27.0812425 73.31635836 20.6708818 80.35244599 14.3125 87.4375 C11.72384884 90.30600534 9.11400973 93.15463798 6.5 96 C3.00957728 99.80236135 -0.47426508 103.61031264 -3.9375 107.4375 C-4.62714844 108.19933594 -5.31679688 108.96117188 -6.02734375 109.74609375 C-7.44309721 111.36369721 -8.8047794 113.02923164 -10.12890625 114.72265625 C-12 117 -12 117 -14 118 C-19.54581926 118.26928982 -23.96656392 117.71819676 -29.33959961 116.15161133 C-30.0254715 115.95481781 -30.71134338 115.75802429 -31.41799927 115.55526733 C-33.6658385 114.90759177 -35.9089628 114.24496803 -38.15234375 113.58203125 C-39.73659498 113.1222625 -41.32111892 112.66343249 -42.90589905 112.20549011 C-47.07286956 110.99863435 -51.23599438 109.77900569 -55.3984375 108.55664062 C-59.57911145 107.33138157 -63.7633411 106.11839961 -67.94726562 104.90429688 C-82.64123565 100.63600409 -97.32134245 96.32060867 -112 92 C-115.86223613 95.83836828 -119.72207011 99.67910415 -123.57836914 103.5234375 C-124.88767174 104.82774584 -126.19787469 106.13115108 -127.5090332 107.43359375 C-136.58461383 116.3911048 -136.58461383 116.3911048 -145.10316467 125.8704834 C-147.53296577 128.59834369 -150.11252672 131.16521242 -152.70532227 133.73632812 C-153.215149 134.24391663 -153.72497574 134.75150513 -154.25025177 135.2744751 C-155.49903645 136.51745445 -156.7493628 137.7588846 -158 139 C-156.91055116 139.00146656 -155.82110231 139.00293312 -154.69863987 139.00444412 C-128.18270137 139.04104873 -101.66688909 139.10051104 -75.15105534 139.18390274 C-62.32815912 139.22370198 -49.50532436 139.25609004 -36.68237305 139.27099609 C-25.50511691 139.28400795 -14.32799593 139.3109609 -3.1508159 139.35461307 C2.7667286 139.37723812 8.68410633 139.39291004 14.60169792 139.39188385 C20.17412783 139.39113787 25.74618892 139.40906417 31.31852341 139.44116783 C33.36106115 139.44967041 35.40364024 139.45141434 37.44618797 139.44580269 C40.24168904 139.43914677 43.0360221 139.45712154 45.83140564 139.48101807 C46.63396205 139.47325765 47.43651847 139.46549723 48.26339477 139.45750165 C56.47539912 139.58121503 63.44691985 142.75919123 69.49609375 148.2890625 C74.72983639 154.24329439 76.02493567 161.07050951 76.5625 168.75 C76.68818359 170.50570312 76.68818359 170.50570312 76.81640625 172.296875 C76.87699219 173.18890625 76.93757813 174.0809375 77 175 C78.299375 175.20625 79.59875 175.4125 80.9375 175.625 C88.94582418 177.41583785 95.43481721 182.21744272 100 189 C103.31201803 195.67496797 104.58486964 201.4607304 104.50793457 208.86694336 C104.51729451 210.27800181 104.51729451 210.27800181 104.52684355 211.71756649 C104.54268572 214.84192063 104.53020366 217.96548505 104.51757812 221.08984375 C104.52300313 223.34107922 104.53012791 225.59231114 104.53881836 227.84353638 C104.55700939 233.93855162 104.55000145 240.03329516 104.53730202 246.12831497 C104.52715256 252.51645879 104.5365731 258.90457984 104.54284668 265.29272461 C104.55058269 276.705529 104.53817684 288.11818334 104.51780933 299.53096235 C104.49994008 309.86347602 104.50304474 320.19580989 104.52148438 330.52832031 C104.54292574 342.54832964 104.55083978 354.5682033 104.53903532 366.58823872 C104.53280941 372.94329963 104.53194004 379.29823689 104.54518127 385.65328979 C104.55676278 391.62882651 104.54867159 397.60402473 104.52560425 403.57952499 C104.52032951 405.76840529 104.52180969 407.95731423 104.53065491 410.14618301 C104.54164264 413.14218803 104.52780746 416.13711938 104.50793457 419.13305664 C104.5213189 420.42150939 104.5213189 420.42150939 104.53497362 421.73599148 C104.42563556 430.27806392 101.64531678 438.14893385 95.77734375 444.46484375 C89.70999028 449.70543697 83.39925491 452.12612374 75.46339798 452.12304783 C74.33029701 452.12503888 73.19719605 452.12702993 72.02975869 452.12908131 C70.16207129 452.12471205 70.16207129 452.12471205 68.25665283 452.12025452 C66.92088989 452.12069052 65.58512702 452.12156597 64.24936461 452.12284368 C60.57568276 452.1250829 56.90202998 452.12107516 53.22835183 452.11606562 C49.26792161 452.11175311 45.30749307 452.11320812 41.34706116 452.1139679 C34.48430237 452.11449262 27.62155309 452.11135117 20.75879669 452.10573006 C10.83636411 452.09760812 0.91393613 452.09499912 -9.00849941 452.09374207 C-25.10641758 452.09155264 -41.20433068 452.08489551 -57.30224609 452.07543945 C-72.94124323 452.06626251 -88.580239 452.05918306 -104.21923828 452.05493164 C-105.18298696 452.05466892 -106.14673564 452.05440619 -107.13968882 452.05413551 C-111.97446129 452.05283049 -116.80923377 452.05156677 -121.64400625 452.05032361 C-161.76267438 452.0399544 -201.88133686 452.02233904 -242 452 C-241.97643433 453.08885498 -241.97643433 453.08885498 -241.95239258 454.19970703 C-241.88979645 457.50805788 -241.85093088 460.81628381 -241.8125 464.125 C-241.78736328 465.26710938 -241.76222656 466.40921875 -241.73632812 467.5859375 C-241.67535856 474.57711389 -241.95823572 479.43453574 -246.65625 484.94140625 C-254.83438065 492.13192366 -263.69975571 495.12545195 -274.125 497.6875 C-274.94057373 497.89004395 -275.75614746 498.09258789 -276.59643555 498.30126953 C-290.85715123 501.59294305 -305.29073764 502.41124491 -319.875 502.375 C-320.67004944 502.37478851 -321.46509888 502.37457703 -322.28424072 502.37435913 C-345.41859911 502.31347468 -374.49666173 501.48116371 -392.875 485.5 C-397.86309559 479.63165225 -398.44817494 475.61489659 -398.3984375 468.09765625 C-398.40130768 467.14233505 -398.40417786 466.18701385 -398.40713501 465.20274353 C-398.40917258 463.18634446 -398.40366425 461.16992549 -398.39111328 459.15356445 C-398.37507315 456.076533 -398.39096351 453.00081854 -398.41015625 449.92382812 C-398.40817342 447.96093461 -398.40432892 445.99804192 -398.3984375 444.03515625 C-398.40451019 443.11936295 -398.41058289 442.20356964 -398.4168396 441.26002502 C-398.35986853 436.05287578 -397.79722 432.55198408 -395 428 C-394.4121875 426.824375 -394.4121875 426.824375 -393.8125 425.625 C-393.544375 425.08875 -393.27625 424.5525 -393 424 C-393.9590625 422.8553125 -393.9590625 422.8553125 -394.9375 421.6875 C-397.5316029 418.30730531 -398.12193117 415.8891893 -398.19287109 411.74731445 C-398.20893402 410.89244949 -398.22499695 410.03758453 -398.24154663 409.15681458 C-398.28623053 405.24265504 -398.32707753 401.32866204 -398.35009766 397.41430664 C-398.36662828 395.35527216 -398.39387988 393.29629438 -398.43212891 391.23754883 C-398.48715351 388.25832554 -398.5088125 385.28044562 -398.5234375 382.30078125 C-398.54610687 381.38903641 -398.56877625 380.47729156 -398.59213257 379.53791809 C-398.57305817 373.71109339 -397.54581843 370.3604683 -393.8800354 365.77848816 C-393.58962372 365.19158707 -393.29921204 364.60468597 -393 364 C-393.68784457 361.88562614 -393.68784457 361.88562614 -395 360 C-398.29931497 354.57994888 -398.45343949 350.16981333 -398.43359375 344 C-398.4388356 343.04609375 -398.44407745 342.0921875 -398.44947815 341.109375 C-398.45588196 339.09896821 -398.45458267 337.08852386 -398.44604492 335.078125 C-398.43752703 332.00973625 -398.46633225 328.94320548 -398.49804688 325.875 C-398.49965893 323.91666722 -398.49908128 321.95833116 -398.49609375 320 C-398.50732773 319.08734375 -398.51856171 318.1746875 -398.53013611 317.234375 C-398.45625217 310.45244064 -397.00414848 307.148183 -392.2890625 302.20703125 C-383.68907563 295 -383.68907563 295 -379 295 C-379.00888245 293.83425949 -379.01776489 292.66851898 -379.0269165 291.467453 C-379.10821911 280.44854181 -379.16806924 269.42969198 -379.20724869 258.41054821 C-379.22806882 252.74630865 -379.25628443 247.08231244 -379.30175781 241.41821289 C-379.34541455 235.94576457 -379.36917898 230.47354943 -379.37950897 225.00094032 C-379.38686484 222.91947068 -379.40122868 220.83801291 -379.42292023 218.7566433 C-379.68224489 192.82804994 -379.68224489 192.82804994 -370.7578125 183.5 C-364.64756077 178.28591852 -358.94845172 176.3784977 -351 176 C-351.03480469 175.16597656 -351.06960938 174.33195313 -351.10546875 173.47265625 C-351.34850389 163.36933843 -350.22163669 155.82041245 -343.8125 147.79296875 C-339.08636205 143.11775901 -332.93914405 140.12398997 -326.28074551 139.91440773 C-325.23245603 139.93263273 -324.18416655 139.95085773 -323.10411072 139.96963501 C-321.89760361 139.98730423 -320.6910965 140.00497345 -319.44802856 140.0231781 C-318.7992638 140.03504087 -318.15049904 140.04690365 -317.48207474 140.0591259 C-313.91293234 140.12407026 -310.34352578 140.17111994 -306.77415466 140.22158813 C-306.01295692 140.2328694 -305.25175918 140.24415066 -304.46749485 140.25577378 C-294.68612366 140.39756266 -284.90405561 140.44675746 -275.12185657 140.49767995 C-265.6103412 140.54744799 -256.10160294 140.62678894 -246.59155273 140.80566406 C-239.02851196 140.94775368 -231.46823274 141.02104615 -223.90381151 141.01604402 C-219.90819373 141.01582621 -215.9192999 141.04795383 -211.92521477 141.16350174 C-191.58859445 141.98274055 -191.58859445 141.98274055 -174.26847935 132.45068932 C-171.23727399 129.24032022 -168.45492304 125.93041821 -165.80679512 122.39832687 C-161.69654364 116.94240856 -157.05131173 111.91423881 -152.1875 107.125 C-151.33929688 106.28453125 -150.49109375 105.4440625 -149.6171875 104.578125 C-147.87239583 102.859375 -146.12760417 101.140625 -144.3828125 99.421875 C-139.36374173 94.44857084 -134.59676021 89.36337928 -130 84 C-128.35807787 82.16505429 -126.69451738 80.34898954 -125 78.5625 C-124.21625 77.71816406 -123.4325 76.87382813 -122.625 76.00390625 C-119.25081278 73.42807583 -117.23620289 73.25179189 -113 73 C-109.91786945 73.49900154 -106.98923937 74.37508528 -104.00708008 75.2890625 C-103.13466171 75.5441156 -102.26224335 75.7991687 -101.36338806 76.06195068 C-99.47858365 76.61501894 -97.59567318 77.17457459 -95.71451759 77.7399292 C-92.7382254 78.6344085 -89.75737437 79.51187947 -86.77482605 80.38525391 C-81.52370532 81.92595976 -76.27715834 83.48163037 -71.03192139 85.04223633 C-62.62673631 87.54274184 -54.21790844 90.03052846 -45.80331993 92.49920654 C-42.86476002 93.36535313 -39.9301424 94.24402275 -36.99555969 95.12353516 C-35.19877593 95.65320336 -33.40184276 96.18236512 -31.60473633 96.7109375 C-30.78854828 96.95922302 -29.97236023 97.20750854 -29.13143921 97.46331787 C-24.04800873 98.9434042 -24.04800873 98.9434042 -19 98 C-16.93079799 96.11228252 -16.93079799 96.11228252 -14.9375 93.6875 C-14.15246094 92.78386719 -13.36742187 91.88023438 -12.55859375 90.94921875 C-11.71425781 89.97597656 -10.86992187 89.00273438 -10 88 C-8.18040959 85.9872724 -6.34058981 83.99351716 -4.5 82 C-1.14612177 78.35160662 2.18999343 74.68829304 5.5 71 C9.27537217 66.79315673 13.08980448 62.62325147 16.9140625 58.4609375 C19.79422607 55.32332914 22.65531614 52.16979059 25.5 49 C28.81001878 45.31169336 32.14729759 41.64948381 35.5 38 C39.01005874 34.17575419 42.51497296 30.34710777 46 26.5 C46.70125 25.7265625 47.4025 24.953125 48.125 24.15625 C49.84259351 22.18101747 51.42945819 20.09405574 53 18 C35.51 17.67 18.02 17.34 0 17 C0 11.39 0 5.78 0 0 Z M-332.8125 162.0625 C-334.62464863 166.01710878 -334.62464863 166.01710878 -334 175 C-204.31 175 -74.62 175 59 175 C60.00471481 164.81122308 60.00471481 164.81122308 56.625 160.375 C52.77786573 156.89425947 50.97426844 156.8741359 45.86450481 156.86857224 C44.54688268 156.86473109 43.22926055 156.86088995 41.87171048 156.8569324 C40.3954052 156.85771274 38.91909997 156.85859155 37.4427948 156.85955811 C35.88545686 156.85697604 34.32811959 156.85396333 32.77078325 156.8505547 C28.4751568 156.84246276 24.17954704 156.84069392 19.88391387 156.83995724 C15.25735706 156.83811049 10.63080899 156.83056508 6.0042572 156.82382202 C-4.11960297 156.81022264 -14.24345919 156.8042115 -24.36732697 156.79981136 C-30.68483899 156.79705167 -37.00234948 156.79281483 -43.31986046 156.78830719 C-60.80005326 156.77611247 -78.28024482 156.76581353 -95.76044178 156.7624321 C-96.87987078 156.76221253 -97.99929978 156.76199297 -99.15265087 156.76176675 C-100.83588614 156.76143933 -100.83588614 156.76143933 -102.55312616 156.7611053 C-104.82716549 156.76066183 -107.10120481 156.76021526 -109.37524414 156.75976562 C-110.50325397 156.7595442 -111.6312638 156.75932277 -112.79345574 156.75909463 C-131.07730599 156.75514538 -149.36111641 156.7376884 -167.64495126 156.7144061 C-186.40211615 156.69071323 -205.15926104 156.67823119 -223.91644114 156.67706418 C-234.45378994 156.67614626 -244.99108686 156.67036459 -255.5284214 156.65224457 C-264.50020021 156.63687141 -273.47191112 156.63170661 -282.44370059 156.63998267 C-287.02351272 156.64389907 -291.60318797 156.64291152 -296.1829834 156.62892532 C-300.37321988 156.61624551 -304.5632158 156.61733146 -308.75345167 156.62951604 C-310.27164266 156.63148336 -311.78985035 156.62834717 -313.30801783 156.61967167 C-315.36796669 156.60864283 -317.42705699 156.61602102 -319.48698139 156.6280632 C-320.63227292 156.62746611 -321.77756446 156.62686903 -322.95756179 156.62625384 C-327.31519541 157.16156424 -329.93938773 158.79309639 -332.8125 162.0625 Z M-361 199 C-362.2769491 202.83084731 -362.13119309 206.42802855 -362.11352539 210.41870117 C-362.11367142 211.27745346 -362.11381744 212.13620575 -362.1139679 213.02098083 C-362.11327079 215.8616691 -362.10548783 218.70229193 -362.09765625 221.54296875 C-362.09579135 223.51166244 -362.09436779 225.48035659 -362.09336853 227.4490509 C-362.08954901 232.63253051 -362.07972352 237.81598214 -362.06866455 242.99945068 C-362.0584383 248.2880414 -362.0538683 253.57663663 -362.04882812 258.86523438 C-362.03810077 269.24350188 -362.0210311 279.62174862 -362 290 C-358.20757331 289.52672581 -354.41621389 289.04538565 -350.625 288.5625 C-349.54476562 288.42779297 -348.46453125 288.29308594 -347.3515625 288.15429688 C-346.3203125 288.02216797 -345.2890625 287.89003906 -344.2265625 287.75390625 C-343.27346191 287.63345947 -342.32036133 287.5130127 -341.33837891 287.38891602 C-338.98574528 287.11554326 -338.98574528 287.11554326 -337 286 C-336.98541748 285.34926514 -336.97083496 284.69853027 -336.95581055 284.02807617 C-336.88135451 281.08061694 -336.78468734 278.13429358 -336.6875 275.1875 C-336.66494141 274.16333984 -336.64238281 273.13917969 -336.61914062 272.08398438 C-336.58369141 271.10107422 -336.54824219 270.11816406 -336.51171875 269.10546875 C-336.48553467 268.19949951 -336.45935059 267.29353027 -336.43237305 266.36010742 C-335.91928401 263.55941194 -335.28152937 262.66413159 -333 261 C-330.43394355 260.42912452 -327.96857788 259.99053982 -325.375 259.625 C-314.51801205 257.81266961 -307.06007188 253.64498597 -300 245 C-296.55253205 239.63954538 -294.56701173 233.74571382 -293.61328125 227.4453125 C-293.47277344 226.55585938 -293.33226562 225.66640625 -293.1875 224.75 C-293.07792969 223.91984375 -292.96835937 223.0896875 -292.85546875 222.234375 C-291.64745193 219.07918951 -289.98184654 218.48640212 -287 217 C-284.46756411 216.62510318 -284.46756411 216.62510318 -281.72913361 216.62526989 C-280.68072658 216.61806335 -279.63231956 216.6108568 -278.55214262 216.60343188 C-276.83401452 216.61449331 -276.83401452 216.61449331 -275.08117676 216.6257782 C-273.85945031 216.62180379 -272.63772386 216.61782939 -271.37897539 216.61373454 C-267.99067241 216.60577311 -264.60287505 216.61127608 -261.2146132 216.62248504 C-257.55948126 216.63132556 -253.9043839 216.62288397 -250.24925232 216.61662292 C-243.09001045 216.60713201 -235.93086933 216.61373732 -228.77163494 216.62588587 C-220.43621415 216.63950363 -212.10081739 216.6378682 -203.76538831 216.63575254 C-188.89386448 216.63256222 -174.02238854 216.64423279 -159.15087891 216.66381836 C-144.7169448 216.68282269 -130.28306682 216.68990596 -115.84912109 216.68432617 C-100.13538661 216.67826963 -84.42167682 216.67844316 -68.70794439 216.689812 C-67.03266748 216.69101931 -65.35739056 216.69222529 -63.68211365 216.69342995 C-62.85782318 216.69403349 -62.03353271 216.69463702 -61.18426374 216.69525885 C-55.37264129 216.69913971 -49.56102803 216.69874372 -43.74940491 216.6968441 C-36.66797337 216.69472291 -29.58659101 216.69994043 -22.50517333 216.71445765 C-18.89142179 216.72170586 -15.27774191 216.72577505 -11.6639843 216.72121429 C-7.74888237 216.71639338 -3.833911 216.72704442 0.08117676 216.73930359 C1.22659549 216.73552427 2.37201423 216.73174494 3.55214262 216.72785109 C4.60054965 216.73368329 5.64895667 216.73951548 6.72913361 216.74552441 C7.63281567 216.74639118 8.53649774 216.74725796 9.46756411 216.748151 C12.34929382 217.03473703 14.44326725 217.63652901 17 219 C17.91293873 221.73881619 18.49199459 224.17923312 19 227 C21.39477286 239.08868217 25.76826405 247.75094722 36 255 C42.07289499 258.69453688 48.17277948 259.6730229 55.1796875 260.41015625 C58.19909905 261.04163983 59.17567193 261.57763061 61 264 C62.68185994 267.36371988 62.15639645 271.1683489 62.16113281 274.8684082 C62.16609772 275.787258 62.17106262 276.70610779 62.17617798 277.65280151 C62.1908206 280.70213563 62.19760535 283.75141771 62.203125 286.80078125 C62.20887504 288.91586814 62.21463279 291.03095502 62.22039795 293.14604187 C62.23091413 297.58556359 62.23675265 302.02506718 62.24023438 306.46459961 C62.24571819 312.15436515 62.26974133 317.84389127 62.29820633 323.53358173 C62.31682756 327.90446168 62.32203805 332.27528392 62.32357025 336.64620018 C62.32659883 338.74376928 62.33463424 340.84133732 62.34775543 342.93886757 C62.36480381 345.87389974 62.36293846 348.80834665 62.35644531 351.7434082 C62.3656601 352.61060989 62.37487488 353.47781158 62.3843689 354.37129211 C62.35215283 359.01832809 62.15792648 362.30805835 59 366 C56.32007795 366.76611787 54.04294173 367.22991426 51.3125 367.5625 C40.38237325 369.27215886 32.72274387 373.1356725 25.4921875 381.80859375 C21.16884913 388.03471877 20.01135078 395.17897447 18.48046875 402.4765625 C17.28819444 407.80787037 17.28819444 407.80787037 14 410 C11.98592502 410.25480902 11.98592502 410.25480902 9.63280964 410.26171303 C8.73508723 410.26917852 7.83736481 410.27664401 6.91243869 410.28433573 C5.43142233 410.28143363 5.43142233 410.28143363 3.92048645 410.2784729 C2.87253377 410.2842653 1.82458109 410.2900577 0.74487227 410.29602563 C-2.78364128 410.31309645 -6.31202459 410.31590824 -9.84057617 410.31884766 C-12.36315738 410.32814094 -14.8857355 410.3383087 -17.40830994 410.34928894 C-22.84798993 410.37099117 -28.28763341 410.38658257 -33.72734642 410.39665604 C-41.59228019 410.41123112 -49.45714822 410.43676461 -57.32204346 410.46498732 C-70.08178437 410.51047665 -82.84153473 410.54708259 -95.60131836 410.578125 C-107.99749411 410.60830179 -120.39364671 410.64264803 -132.78979492 410.68261719 C-133.93561897 410.68630951 -133.93561897 410.68630951 -135.10459097 410.69007643 C-138.93670154 410.70245086 -142.76881183 410.71490742 -146.60092199 410.72740483 C-178.40058343 410.83100467 -210.20027003 410.92004971 -242 411 C-242.19118408 411.61415771 -242.38236816 412.22831543 -242.5793457 412.86108398 C-242.9673938 414.07260132 -242.9673938 414.07260132 -243.36328125 415.30859375 C-243.61634033 416.10837646 -243.86939941 416.90815918 -244.13012695 417.73217773 C-245.24601712 420.64138451 -246.88239893 422.73635748 -249 425 C-248.401875 425.721875 -247.80375 426.44375 -247.1875 427.1875 C-245 430 -245 430 -243.69765264 432.63663048 C-242.22670778 435.21652738 -242.22670778 435.21652738 -239.58245915 435.62559515 C-238.6147667 435.62586484 -237.64707425 435.62613453 -236.65005779 435.62641239 C-234.97461849 435.64504545 -234.97461849 435.64504545 -233.26533192 435.66405493 C-232.03305971 435.6522192 -230.8007875 435.64038347 -229.53117371 435.62818909 C-228.22610707 435.63528347 -226.92104044 435.64237786 -225.57642633 435.64968723 C-221.94605555 435.66868072 -218.31635498 435.65633656 -214.6860007 435.6389643 C-210.7737999 435.62563033 -206.86169977 435.64101322 -202.94950867 435.65278625 C-195.28159925 435.67119861 -187.61394408 435.66262602 -179.9460425 435.64469803 C-173.71426243 435.63068889 -167.48255152 435.62677559 -161.25075722 435.6301403 C-160.36478043 435.63061775 -159.47880364 435.63109519 -158.56597907 435.6315871 C-156.76625804 435.63261341 -154.96653703 435.63366876 -153.16681603 435.63475286 C-137.23933357 435.64332758 -121.31197403 435.62662161 -105.38452148 435.59692383 C-89.92515902 435.56809915 -74.46597375 435.56099497 -59.0065918 435.57641602 C-42.18205573 435.5931758 -25.35760388 435.59721352 -8.53306562 435.57970566 C-6.73894045 435.57786124 -4.94481527 435.57602651 -3.15069008 435.57420158 C-2.26790403 435.57328949 -1.38511798 435.5723774 -0.47558084 435.57143768 C5.74783391 435.56582977 11.9712076 435.56914197 18.19462013 435.57574654 C25.78043814 435.5834771 33.36608168 435.57673763 40.95186452 435.5515715 C44.82300016 435.53906824 48.69386409 435.53293966 52.56501007 435.54411316 C56.76033342 435.55599364 60.95494177 435.53691109 65.15022278 435.5146637 C66.98859285 435.52702485 66.98859285 435.52702485 68.86410171 435.53963572 C77.25208476 435.46621722 77.25208476 435.46621722 84 431 C87.68502057 426.65357702 87.42356571 422.36644391 87.38095093 416.93519592 C87.3856309 416.02044146 87.39031087 415.10568701 87.39513266 414.16321272 C87.40710172 411.09702377 87.39761781 408.03128018 87.38818359 404.96508789 C87.39224847 402.76721434 87.39758987 400.56934284 87.40411377 398.37147522 C87.41780393 392.40043363 87.41248142 386.42954735 87.40297651 380.45850301 C87.39538781 374.21260102 87.40242342 367.96671244 87.40713501 361.72080994 C87.41294514 350.55805372 87.40361378 339.39535456 87.388357 328.23261201 C87.37495715 318.11540746 87.3772792 307.99830619 87.39111328 297.88110352 C87.40717553 286.12890975 87.41313952 274.3767663 87.40427649 262.62456125 C87.399598 256.40482919 87.39897993 250.18516825 87.40888596 243.96544075 C87.4175493 238.11725595 87.41154505 232.26926624 87.39420319 226.42110252 C87.39023481 224.27408294 87.39137836 222.12704695 87.39799118 219.98003387 C87.40618281 217.05039649 87.39591351 214.12138517 87.38095093 211.19178772 C87.38764309 210.34110295 87.39433526 209.49041818 87.40123022 208.61395508 C87.35228531 203.67680131 86.74213028 200.27482876 84 196 C78.78187386 192.11985492 74.26786309 191.87475548 67.88997936 191.86857224 C67.16990234 191.8665196 66.44982533 191.86446697 65.70792779 191.86235213 C63.28241557 191.85667415 60.85695998 191.85814036 58.43144226 191.85955811 C56.67993807 191.85697493 54.92843446 191.85396191 53.17693168 191.8505547 C48.35381155 191.84247593 43.5307063 191.84069465 38.70758021 191.83995724 C33.50978166 191.83810823 28.31199086 191.83056171 23.11419678 191.82382202 C11.74449258 191.8102324 0.37479191 191.80421313 -10.99491906 191.79981136 C-18.09137754 191.79705026 -25.18783466 191.79281317 -32.28429222 191.78830719 C-51.92459306 191.77611418 -71.5648928 191.76581462 -91.20519733 191.7624321 C-93.09119738 191.76210275 -93.09119738 191.76210275 -95.01529844 191.76176675 C-96.27567072 191.76154847 -97.536043 191.76133019 -98.83460838 191.7611053 C-101.38868098 191.76066183 -103.94275357 191.76021527 -106.49682617 191.75976562 C-107.76373927 191.7595442 -109.03065237 191.75932277 -110.33595677 191.75909463 C-130.87191119 191.75514525 -151.40783015 191.73768709 -171.94377086 191.7144061 C-193.01753397 191.6907078 -214.09127928 191.67823096 -235.16505593 191.67706418 C-247.0013514 191.67614661 -258.83760067 191.6703737 -270.67388344 191.65224457 C-280.75117409 191.63686418 -290.82840426 191.63171095 -300.90570442 191.63998267 C-306.04879674 191.64389636 -311.19176717 191.64292453 -316.33484459 191.62892532 C-321.04198183 191.61622967 -325.74890507 191.61734568 -330.45604184 191.62951604 C-332.15994067 191.63148056 -333.86385444 191.62835991 -335.56773225 191.61967167 C-337.88290048 191.60861275 -340.19730893 191.61604344 -342.51245594 191.6280632 C-343.79867873 191.62746611 -345.08490152 191.62686903 -346.41010076 191.62625384 C-352.35640745 192.24532673 -357.14105621 194.25053072 -361 199 Z M-278 234 C-279.32 237.96 -280.64 241.92 -282 246 C-287.59064633 257.82022368 -296.40708215 267.93733908 -308.90234375 272.47265625 C-312.57558036 273.7389767 -316.27642434 274.89126733 -320 276 C-320 279.3 -320 282.6 -320 286 C-319.28271729 286.03440186 -318.56543457 286.06880371 -317.82641602 286.10424805 C-263.32401547 288.89757728 -263.32401547 288.89757728 -246.453125 304.19140625 C-242.45277749 309.17033339 -242.66563973 314.51921461 -242.62890625 320.61328125 C-242.61987778 321.54166306 -242.6108493 322.47004486 -242.60154724 323.42655945 C-242.58706757 325.38744901 -242.57816369 327.34838664 -242.57446289 329.30932617 C-242.5625803 332.29234257 -242.51338437 335.27327994 -242.46289062 338.25585938 C-242.45342374 340.16665664 -242.44618998 342.07746653 -242.44140625 343.98828125 C-242.42187393 344.8718782 -242.40234161 345.75547516 -242.38221741 346.66584778 C-242.42327247 352.36807919 -243.54332268 355.75534871 -246.97471619 360.33952332 C-248.29885555 362.06789301 -248.29885555 362.06789301 -247.5 364.6875 C-247.005 365.450625 -246.51 366.21375 -246 367 C-243 372 -243 372 -242 394 C-161.15 394 -80.3 394 3 394 C4.32 390.04 5.64 386.08 7 382 C12.53269366 370.29127621 20.08597008 361.51170919 32 356 C35.44579104 354.7960954 38.8924673 353.73452188 42.41015625 352.76171875 C44.907981 352.25163638 44.907981 352.25163638 46 351 C46.09492722 348.65746218 46.12559791 346.34453896 46.11352539 344.00170898 C46.11374443 342.90421326 46.11374443 342.90421326 46.1139679 341.7845459 C46.11326867 339.35503216 46.10547585 336.92559417 46.09765625 334.49609375 C46.0957921 332.81600486 46.09436819 331.13591543 46.09336853 329.45582581 C46.08954307 325.02526357 46.07971256 320.5947339 46.06866455 316.16418457 C46.05845103 311.64657024 46.05387104 307.12895066 46.04882812 302.61132812 C46.03809031 293.74087107 46.02101356 284.87043824 46 276 C44.65583511 275.59603752 44.65583511 275.59603752 43.28451538 275.18391418 C42.11087433 274.82778549 40.93723328 274.4716568 39.72802734 274.10473633 C38.56379242 273.75292801 37.3995575 273.40111969 36.20004272 273.03865051 C23.46865086 268.90637234 15.35171571 260.81542483 8.67578125 249.55078125 C6.32065532 244.56054938 4.74496511 239.23489532 3 234 C-89.73 234 -182.46 234 -278 234 Z M-381 315 C-374.13061577 323.53093204 -354.87869752 325.0452012 -344.60668945 326.29003906 C-336.64466686 327.11362023 -328.68680928 327.24301918 -320.6875 327.25 C-319.63743774 327.25101212 -319.63743774 327.25101212 -318.56616211 327.25204468 C-298.1216103 327.22093947 -276.90768515 325.77205582 -259 315 C-266.80509399 305.57911463 -287.28029787 304.44966401 -298.60743713 303.21563721 C-302.23583715 302.88861631 -305.84687217 302.81906678 -309.48828125 302.796875 C-310.26530899 302.78986069 -311.04233673 302.78284637 -311.84291077 302.77561951 C-314.33283363 302.75823592 -316.82251871 302.75176875 -319.3125 302.75 C-320.16281799 302.74932526 -321.01313599 302.74865051 -321.88922119 302.74795532 C-341.49768666 302.77269772 -364.43427937 303.06964157 -381 315 Z M-381 335 C-381 339.95 -381 344.9 -381 350 C-351.17580212 366.8239065 -308.05223882 365.53832844 -275.734375 357.07421875 C-266.3188958 354.77721513 -266.3188958 354.77721513 -259 349 C-258.63601382 345.56919882 -258.63601382 345.56919882 -258.8125 341.8125 C-258.83957031 340.54019531 -258.86664063 339.26789063 -258.89453125 337.95703125 C-258.94673828 336.49330078 -258.94673828 336.49330078 -259 335 C-263.40277008 335.96682234 -267.80114404 336.94444222 -272.18359375 338 C-306.17632144 346.09085733 -342.33727507 345.28338501 -376 336 C-377.65 335.67 -379.3 335.34 -381 335 Z M-380 376 C-379.67 376.99 -379.34 377.98 -379 379 C-347.25760098 394.24378752 -301.66180428 392.65817286 -268.796875 381.95703125 C-263.57017724 380.10475186 -263.57017724 380.10475186 -260 376 C-264.19853373 372.88512786 -264.19853373 372.88512786 -269.19189453 372.01269531 C-271.68398442 372.44532422 -274.10985852 373.00671412 -276.5625 373.625 C-305.61642478 380.01701735 -337.11159822 380.26149107 -366.03686523 372.96972656 C-372.17034708 371.5838629 -374.88803599 372.29847021 -380 376 Z M-381 396 C-381 401.28 -381 406.56 -381 412 C-362.46636163 422.42517158 -341.11814097 423.40157465 -320.3125 423.3125 C-319.43014679 423.31067719 -318.54779358 423.30885437 -317.63870239 423.30697632 C-286.51597636 423.58633369 -286.51597636 423.58633369 -259 411 C-258.53788135 408.10405649 -258.415253 406.09502976 -258.625 403.25 C-258.65207031 402.55261719 -258.67914063 401.85523438 -258.70703125 401.13671875 C-258.77745217 399.42314295 -258.88507087 397.71116698 -259 396 C-260.07894531 396.32613281 -261.15789062 396.65226562 -262.26953125 396.98828125 C-300.49273866 408.24789755 -342.99712151 408.45996016 -381 396 Z M-377.9375 435.9375 C-378.948125 436.618125 -379.95875 437.29875 -381 438 C-372.32927694 448.21482442 -352.58313528 448.87528863 -340.125 449.96728516 C-314.89343062 451.93510286 -282.31932989 453.37799529 -260 439 C-262.04919372 436.55673057 -263.44242641 435.16409331 -266.53515625 434.25390625 C-271.202812 433.91185707 -275.2721474 434.8509623 -279.8125 435.875 C-281.52649679 436.25127484 -283.24134341 436.62370009 -284.95703125 436.9921875 C-285.70960205 437.16089355 -286.46217285 437.32959961 -287.23754883 437.50341797 C-294.18508304 438.7523163 -301.10354795 439.17087252 -308.15234375 439.23828125 C-309.42733734 439.25263214 -309.42733734 439.25263214 -310.72808838 439.26727295 C-313.46459681 439.29175779 -316.20089589 439.30438786 -318.9375 439.3125 C-319.86986481 439.31611542 -320.80222961 439.31973083 -321.7628479 439.32345581 C-337.94682135 439.34865556 -353.20049778 437.78907144 -369.07885742 434.57983398 C-372.70313245 433.93395672 -374.84598586 433.85545987 -377.9375 435.9375 Z M-381 458 C-381.21742047 460.40068434 -381.37467466 462.78170109 -381.5 465.1875 C-381.56703125 465.86103516 -381.6340625 466.53457031 -381.703125 467.22851562 C-381.8740339 469.54462278 -381.8740339 469.54462278 -381 473 C-376.4991933 477.52275115 -370.10016601 479.21874277 -364.0625 480.6875 C-363.22533447 480.89463623 -362.38816895 481.10177246 -361.52563477 481.31518555 C-331.07260114 488.56755433 -287.96412944 489.90117164 -260 474 C-258.60843516 472.83722968 -258.60843516 472.83722968 -258.90234375 469.62109375 C-258.90901631 468.22652923 -258.92097468 466.83198257 -258.9375 465.4375 C-258.94201172 464.72658203 -258.94652344 464.01566406 -258.95117188 463.28320312 C-258.96299136 461.52209987 -258.98092737 459.76103964 -259 458 C-259.56203125 458.17015625 -260.1240625 458.3403125 -260.703125 458.515625 C-267.11814038 460.36535336 -273.58450421 461.8052776 -280.125 463.125 C-280.9593457 463.29547852 -281.79369141 463.46595703 -282.65332031 463.64160156 C-283.47155273 463.80370117 -284.28978516 463.96580078 -285.1328125 464.1328125 C-285.85355957 464.27605957 -286.57430664 464.41930664 -287.31689453 464.56689453 C-294.32152142 465.69757771 -301.23787432 466.16448289 -308.328125 466.203125 C-309.62308144 466.21357849 -309.62308144 466.21357849 -310.94419861 466.22424316 C-313.71284921 466.24153547 -316.48129766 466.24796183 -319.25 466.25 C-320.19308014 466.25100708 -321.13616028 466.25201416 -322.1078186 466.25305176 C-341.18931554 466.23923563 -358.67840622 464.41597047 -377 459 C-378.33114077 458.65801587 -379.66346292 458.32024605 -381 458 Z " fill="#000000" transform="translate(403,5)"/>
<path d="M0 0 C5.61 0 11.22 0 17 0 C17 3.3 17 6.6 17 10 C18.44375 10.309375 19.8875 10.61875 21.375 10.9375 C29.75441226 13.48103791 35.91855393 19.36704187 40.0625 27 C42.14159505 31.6706431 42.75393159 35.91458619 43 41 C37.39 41 31.78 41 26 41 C25.15364583 38.78645833 24.30729167 36.57291667 23.4609375 34.359375 C21.44085876 31.09700184 19.39293111 29.77230755 16 28 C12.32551478 27.37162584 12.32551478 27.37162584 8.5 27.5 C7.2315625 27.4896875 5.963125 27.479375 4.65625 27.46875 C0.4124162 28.08537542 -1.72608877 29.26532121 -5 32 C-7.90849577 36.19835042 -7.75856434 41.09255313 -7 46 C-5.35438612 49.3320281 -3.1135708 51.43344643 0.2265625 53.1328125 C3.61562052 54.1924898 6.64026672 54.27942688 10.1875 54.375 C20.87306732 54.90297132 28.71513017 58.03369469 36 66 C41.55859051 73.05785411 44.03979315 80.98845935 43 90 C41.07901213 100.10536475 36.25973764 106.94341247 27.88671875 112.8125 C24.02630828 115.24224075 21.58446346 116 17 116 C17 119.3 17 122.6 17 126 C11.39 126 5.78 126 0 126 C0 122.7 0 119.4 0 116 C-0.969375 115.95875 -1.93875 115.9175 -2.9375 115.875 C-9.3894679 114.94581193 -14.33298449 110.66701551 -18.8125 106.1875 C-23.70130548 99.06381201 -25 94.90574295 -25 86 C-19.39 86 -13.78 86 -8 86 C-7.01 89.465 -7.01 89.465 -6 93 C-5.67 93.99 -5.34 94.98 -5 96 C-2.57616923 97.16953416 -2.57616923 97.16953416 0 98 C0.66 98.33 1.32 98.66 2 99 C12.10942761 99.90450693 12.10942761 99.90450693 21 96 C23.82583825 92.15131232 25.01887309 89.1135123 24.9375 84.3125 C23.61356379 79.63459204 22.56796299 76.9375918 18.30859375 74.390625 C14.72814643 72.88573805 12.11427689 72.60491249 8.25 72.5 C-2.32026409 71.89979573 -10.43362569 69.782969 -18 62 C-24.72536806 52.68903876 -26.02631065 44.23208136 -25 33 C-23.22615643 25.4130787 -18.08317913 18.7795966 -11.6875 14.42578125 C-8.08248465 12.356455 -5.06413555 11.01603389 -1 10 C-0.67 6.7 -0.34 3.4 0 0 Z " fill="#000000" transform="translate(257,256)"/>
<path d="M0 0 C6.93 0 13.86 0 21 0 C21 5.61 21 11.22 21 17 C14.07 17 7.14 17 0 17 C0 11.39 0 5.78 0 0 Z " fill="#000000" transform="translate(381,308)"/>
</svg>
